<svg width="1440" height="740" viewBox="0 0 1440 740" fill="none" xmlns="http://www.w3.org/2000/svg">
<path d="M40.2881 677.218H119.711L159.423 746L119.711 814.782H40.2881L0.576172 746L40.2881 677.218Z" stroke="white" stroke-opacity="0.04"/>
<path d="M40.2881 472.218H119.711L159.423 541L119.711 609.782H40.2881L0.576172 541L40.2881 472.218Z" stroke="white" stroke-opacity="0.04"/>
<path d="M40.2881 267.218H119.711L159.423 336L119.711 404.782H40.2881L0.576172 336L40.2881 267.218Z" stroke="white" stroke-opacity="0.04"/>
<path d="M40.2881 62.2178H119.711L159.423 131L119.711 199.782H40.2881L0.576172 131L40.2881 62.2178Z" stroke="white" stroke-opacity="0.04"/>
<path d="M40.2881 540.218H119.711L159.423 609L119.711 677.782H40.2881L0.576172 609L40.2881 540.218Z" stroke="white" stroke-opacity="0.04"/>
<path d="M40.2881 335.218H119.711L159.423 404L119.711 472.782H40.2881L0.576172 404L40.2881 335.218Z" stroke="white" stroke-opacity="0.04"/>
<path d="M40.2881 130.218H119.711L159.423 199L119.711 267.782H40.2881L0.576172 199L40.2881 130.218Z" stroke="white" stroke-opacity="0.04"/>
<path d="M40.2881 -74.7822H119.711L159.423 -6L119.711 62.7822L40.2881 62.7822L0.576172 -6L40.2881 -74.7822Z" stroke="white" stroke-opacity="0.04"/>
<path d="M40.2881 609.218H119.711L159.423 678L119.711 746.782H40.2881L0.576172 678L40.2881 609.218Z" stroke="white" stroke-opacity="0.04"/>
<path d="M40.2881 404.218H119.711L159.423 473L119.711 541.782H40.2881L0.576172 473L40.2881 404.218Z" stroke="white" stroke-opacity="0.04"/>
<path d="M40.2881 199.218H119.711L159.423 268L119.711 336.782H40.2881L0.576172 268L40.2881 199.218Z" stroke="white" stroke-opacity="0.04"/>
<path d="M40.2881 -5.78223H119.711L159.423 63L119.711 131.782H40.2881L0.576172 63L40.2881 -5.78223Z" stroke="white" stroke-opacity="0.04"/>
<path d="M200.288 677.218H279.711L319.423 746L279.711 814.782H200.288L160.576 746L200.288 677.218Z" stroke="white" stroke-opacity="0.04"/>
<path d="M200.288 472.218H279.711L319.423 541L279.711 609.782H200.288L160.576 541L200.288 472.218Z" stroke="white" stroke-opacity="0.04"/>
<path d="M200.288 267.218H279.711L319.423 336L279.711 404.782H200.288L160.576 336L200.288 267.218Z" stroke="white" stroke-opacity="0.04"/>
<path d="M200.288 62.2178H279.711L319.423 131L279.711 199.782H200.288L160.576 131L200.288 62.2178Z" stroke="white" stroke-opacity="0.04"/>
<path d="M200.288 540.218H279.711L319.423 609L279.711 677.782H200.288L160.576 609L200.288 540.218Z" stroke="white" stroke-opacity="0.04"/>
<path d="M200.288 335.218H279.711L319.423 404L279.711 472.782H200.288L160.576 404L200.288 335.218Z" stroke="white" stroke-opacity="0.04"/>
<path d="M200.288 130.218H279.711L319.423 199L279.711 267.782H200.288L160.576 199L200.288 130.218Z" stroke="white" stroke-opacity="0.04"/>
<path d="M200.288 -74.7822H279.711L319.423 -6L279.711 62.7822L200.288 62.7822L160.576 -6L200.288 -74.7822Z" stroke="white" stroke-opacity="0.04"/>
<path d="M200.288 609.218H279.711L319.423 678L279.711 746.782H200.288L160.576 678L200.288 609.218Z" stroke="white" stroke-opacity="0.04"/>
<path d="M200.288 404.218H279.711L319.423 473L279.711 541.782H200.288L160.576 473L200.288 404.218Z" stroke="white" stroke-opacity="0.04"/>
<path d="M200.288 199.218H279.711L319.423 268L279.711 336.782H200.288L160.576 268L200.288 199.218Z" stroke="white" stroke-opacity="0.04"/>
<path d="M200.288 -5.78223H279.711L319.423 63L279.711 131.782H200.288L160.576 63L200.288 -5.78223Z" stroke="white" stroke-opacity="0.04"/>
<path d="M360.288 677.218H439.711L479.423 746L439.711 814.782H360.288L320.576 746L360.288 677.218Z" stroke="white" stroke-opacity="0.04"/>
<path d="M360.288 472.218H439.711L479.423 541L439.711 609.782H360.288L320.576 541L360.288 472.218Z" stroke="white" stroke-opacity="0.04"/>
<path d="M360.288 267.218H439.711L479.423 336L439.711 404.782H360.288L320.576 336L360.288 267.218Z" stroke="white" stroke-opacity="0.04"/>
<path d="M360.288 62.2178H439.711L479.423 131L439.711 199.782H360.288L320.576 131L360.288 62.2178Z" stroke="white" stroke-opacity="0.04"/>
<path d="M360.288 540.218H439.711L479.423 609L439.711 677.782H360.288L320.576 609L360.288 540.218Z" stroke="white" stroke-opacity="0.04"/>
<path d="M360.288 335.218H439.711L479.423 404L439.711 472.782H360.288L320.576 404L360.288 335.218Z" stroke="white" stroke-opacity="0.04"/>
<path d="M360.288 130.218H439.711L479.423 199L439.711 267.782H360.288L320.576 199L360.288 130.218Z" stroke="white" stroke-opacity="0.04"/>
<path d="M360.288 -74.7822H439.711L479.423 -6L439.711 62.7822L360.288 62.7822L320.576 -6L360.288 -74.7822Z" stroke="white" stroke-opacity="0.04"/>
<path d="M360.288 609.218H439.711L479.423 678L439.711 746.782H360.288L320.576 678L360.288 609.218Z" stroke="white" stroke-opacity="0.04"/>
<path d="M360.288 404.218H439.711L479.423 473L439.711 541.782H360.288L320.576 473L360.288 404.218Z" stroke="white" stroke-opacity="0.04"/>
<path d="M360.288 199.218H439.711L479.423 268L439.711 336.782H360.288L320.576 268L360.288 199.218Z" stroke="white" stroke-opacity="0.04"/>
<path d="M360.288 -5.78223H439.711L479.423 63L439.711 131.782H360.288L320.576 63L360.288 -5.78223Z" stroke="white" stroke-opacity="0.04"/>
<path d="M520.288 677.218H599.711L639.423 746L599.711 814.782H520.288L480.576 746L520.288 677.218Z" stroke="white" stroke-opacity="0.04"/>
<path d="M520.288 472.218H599.711L639.423 541L599.711 609.782H520.288L480.576 541L520.288 472.218Z" stroke="white" stroke-opacity="0.04"/>
<path d="M520.288 267.218H599.711L639.423 336L599.711 404.782H520.288L480.576 336L520.288 267.218Z" stroke="white" stroke-opacity="0.04"/>
<path d="M520.288 62.2178H599.711L639.423 131L599.711 199.782H520.288L480.576 131L520.288 62.2178Z" stroke="white" stroke-opacity="0.04"/>
<path d="M520.288 540.218H599.711L639.423 609L599.711 677.782H520.288L480.576 609L520.288 540.218Z" stroke="white" stroke-opacity="0.04"/>
<path d="M520.288 335.218H599.711L639.423 404L599.711 472.782H520.288L480.576 404L520.288 335.218Z" stroke="white" stroke-opacity="0.04"/>
<path d="M520.288 130.218H599.711L639.423 199L599.711 267.782H520.288L480.576 199L520.288 130.218Z" stroke="white" stroke-opacity="0.04"/>
<path d="M520.288 -74.7822H599.711L639.423 -6L599.711 62.7822L520.288 62.7822L480.576 -6L520.288 -74.7822Z" stroke="white" stroke-opacity="0.04"/>
<path d="M520.288 609.218H599.711L639.423 678L599.711 746.782H520.288L480.576 678L520.288 609.218Z" stroke="white" stroke-opacity="0.04"/>
<path d="M520.288 404.218H599.711L639.423 473L599.711 541.782H520.288L480.576 473L520.288 404.218Z" stroke="white" stroke-opacity="0.04"/>
<path d="M520.288 199.218H599.711L639.423 268L599.711 336.782H520.288L480.576 268L520.288 199.218Z" stroke="white" stroke-opacity="0.04"/>
<path d="M520.288 -5.78223H599.711L639.423 63L599.711 131.782H520.288L480.576 63L520.288 -5.78223Z" stroke="white" stroke-opacity="0.04"/>
<path d="M680.288 677.218H759.711L799.423 746L759.711 814.782H680.288L640.576 746L680.288 677.218Z" stroke="white" stroke-opacity="0.04"/>
<path d="M680.288 472.218H759.711L799.423 541L759.711 609.782H680.288L640.576 541L680.288 472.218Z" stroke="white" stroke-opacity="0.04"/>
<path d="M680.288 267.218H759.711L799.423 336L759.711 404.782H680.288L640.576 336L680.288 267.218Z" stroke="white" stroke-opacity="0.04"/>
<path d="M680.288 62.2178H759.711L799.423 131L759.711 199.782H680.288L640.576 131L680.288 62.2178Z" stroke="white" stroke-opacity="0.04"/>
<path d="M680.288 540.218H759.711L799.423 609L759.711 677.782H680.288L640.576 609L680.288 540.218Z" stroke="white" stroke-opacity="0.04"/>
<path d="M680.288 335.218H759.711L799.423 404L759.711 472.782H680.288L640.576 404L680.288 335.218Z" stroke="white" stroke-opacity="0.04"/>
<path d="M680.288 130.218H759.711L799.423 199L759.711 267.782H680.288L640.576 199L680.288 130.218Z" stroke="white" stroke-opacity="0.04"/>
<path d="M680.288 -74.7822H759.711L799.423 -6L759.711 62.7822L680.288 62.7822L640.576 -6L680.288 -74.7822Z" stroke="white" stroke-opacity="0.04"/>
<path d="M680.288 609.218H759.711L799.423 678L759.711 746.782H680.288L640.576 678L680.288 609.218Z" stroke="white" stroke-opacity="0.04"/>
<path d="M680.288 404.218H759.711L799.423 473L759.711 541.782H680.288L640.576 473L680.288 404.218Z" stroke="white" stroke-opacity="0.04"/>
<path d="M680.288 199.218H759.711L799.423 268L759.711 336.782H680.288L640.576 268L680.288 199.218Z" stroke="white" stroke-opacity="0.04"/>
<path d="M680.288 -5.78223H759.711L799.423 63L759.711 131.782H680.288L640.576 63L680.288 -5.78223Z" stroke="white" stroke-opacity="0.04"/>
<path d="M840.288 677.218H919.711L959.423 746L919.711 814.782H840.288L800.576 746L840.288 677.218Z" stroke="white" stroke-opacity="0.04"/>
<path d="M840.288 472.218H919.711L959.423 541L919.711 609.782H840.288L800.576 541L840.288 472.218Z" stroke="white" stroke-opacity="0.04"/>
<path d="M840.288 267.218H919.711L959.423 336L919.711 404.782H840.288L800.576 336L840.288 267.218Z" stroke="white" stroke-opacity="0.04"/>
<path d="M840.288 62.2178H919.711L959.423 131L919.711 199.782H840.288L800.576 131L840.288 62.2178Z" stroke="white" stroke-opacity="0.04"/>
<path d="M840.288 540.218H919.711L959.423 609L919.711 677.782H840.288L800.576 609L840.288 540.218Z" stroke="white" stroke-opacity="0.04"/>
<path d="M840.288 335.218H919.711L959.423 404L919.711 472.782H840.288L800.576 404L840.288 335.218Z" stroke="white" stroke-opacity="0.04"/>
<path d="M840.288 130.218H919.711L959.423 199L919.711 267.782H840.288L800.576 199L840.288 130.218Z" stroke="white" stroke-opacity="0.04"/>
<path d="M840.288 -74.7822H919.711L959.423 -6L919.711 62.7822L840.288 62.7822L800.576 -6L840.288 -74.7822Z" stroke="white" stroke-opacity="0.04"/>
<path d="M840.288 609.218H919.711L959.423 678L919.711 746.782H840.288L800.576 678L840.288 609.218Z" stroke="white" stroke-opacity="0.04"/>
<path d="M840.288 404.218H919.711L959.423 473L919.711 541.782H840.288L800.576 473L840.288 404.218Z" stroke="white" stroke-opacity="0.04"/>
<path d="M840.288 199.218H919.711L959.423 268L919.711 336.782H840.288L800.576 268L840.288 199.218Z" stroke="white" stroke-opacity="0.04"/>
<path d="M840.288 -5.78223H919.711L959.423 63L919.711 131.782H840.288L800.576 63L840.288 -5.78223Z" stroke="white" stroke-opacity="0.04"/>
<path d="M1000.29 677.218H1079.71L1119.42 746L1079.71 814.782H1000.29L960.576 746L1000.29 677.218Z" stroke="white" stroke-opacity="0.04"/>
<path d="M1000.29 472.218H1079.71L1119.42 541L1079.71 609.782H1000.29L960.576 541L1000.29 472.218Z" stroke="white" stroke-opacity="0.04"/>
<path d="M1000.29 267.218H1079.71L1119.42 336L1079.71 404.782H1000.29L960.576 336L1000.29 267.218Z" stroke="white" stroke-opacity="0.04"/>
<path d="M1000.29 62.2178H1079.71L1119.42 131L1079.71 199.782H1000.29L960.576 131L1000.29 62.2178Z" stroke="white" stroke-opacity="0.04"/>
<path d="M1000.29 540.218H1079.71L1119.42 609L1079.71 677.782H1000.29L960.576 609L1000.29 540.218Z" stroke="white" stroke-opacity="0.04"/>
<path d="M1000.29 335.218H1079.71L1119.42 404L1079.71 472.782H1000.29L960.576 404L1000.29 335.218Z" stroke="white" stroke-opacity="0.04"/>
<path d="M1000.29 130.218H1079.71L1119.42 199L1079.71 267.782H1000.29L960.576 199L1000.29 130.218Z" stroke="white" stroke-opacity="0.04"/>
<path d="M1000.29 -74.7822H1079.71L1119.42 -6L1079.71 62.7822L1000.29 62.7822L960.576 -6L1000.29 -74.7822Z" stroke="white" stroke-opacity="0.04"/>
<path d="M1000.29 609.218H1079.71L1119.42 678L1079.71 746.782H1000.29L960.576 678L1000.29 609.218Z" stroke="white" stroke-opacity="0.04"/>
<path d="M1000.29 404.218H1079.71L1119.42 473L1079.71 541.782H1000.29L960.576 473L1000.29 404.218Z" stroke="white" stroke-opacity="0.04"/>
<path d="M1000.29 199.218H1079.71L1119.42 268L1079.71 336.782H1000.29L960.576 268L1000.29 199.218Z" stroke="white" stroke-opacity="0.04"/>
<path d="M1000.29 -5.78223H1079.71L1119.42 63L1079.71 131.782H1000.29L960.576 63L1000.29 -5.78223Z" stroke="white" stroke-opacity="0.04"/>
<path d="M1160.29 677.218H1239.71L1279.42 746L1239.71 814.782H1160.29L1120.58 746L1160.29 677.218Z" stroke="white" stroke-opacity="0.04"/>
<path d="M1160.29 472.218H1239.71L1279.42 541L1239.71 609.782H1160.29L1120.58 541L1160.29 472.218Z" stroke="white" stroke-opacity="0.04"/>
<path d="M1160.29 267.218H1239.71L1279.42 336L1239.71 404.782H1160.29L1120.58 336L1160.29 267.218Z" stroke="white" stroke-opacity="0.04"/>
<path d="M1160.29 62.2178H1239.71L1279.42 131L1239.71 199.782H1160.29L1120.58 131L1160.29 62.2178Z" stroke="white" stroke-opacity="0.04"/>
<path d="M1160.29 540.218H1239.71L1279.42 609L1239.71 677.782H1160.29L1120.58 609L1160.29 540.218Z" stroke="white" stroke-opacity="0.04"/>
<path d="M1160.29 335.218H1239.71L1279.42 404L1239.71 472.782H1160.29L1120.58 404L1160.29 335.218Z" stroke="white" stroke-opacity="0.04"/>
<path d="M1160.29 130.218H1239.71L1279.42 199L1239.71 267.782H1160.29L1120.58 199L1160.29 130.218Z" stroke="white" stroke-opacity="0.04"/>
<path d="M1160.29 -74.7822H1239.71L1279.42 -6L1239.71 62.7822L1160.29 62.7822L1120.58 -6L1160.29 -74.7822Z" stroke="white" stroke-opacity="0.04"/>
<path d="M1160.29 609.218H1239.71L1279.42 678L1239.71 746.782H1160.29L1120.58 678L1160.29 609.218Z" stroke="white" stroke-opacity="0.04"/>
<path d="M1160.29 404.218H1239.71L1279.42 473L1239.71 541.782H1160.29L1120.58 473L1160.29 404.218Z" stroke="white" stroke-opacity="0.04"/>
<path d="M1160.29 199.218H1239.71L1279.42 268L1239.71 336.782H1160.29L1120.58 268L1160.29 199.218Z" stroke="white" stroke-opacity="0.04"/>
<path d="M1160.29 -5.78223H1239.71L1279.42 63L1239.71 131.782H1160.29L1120.58 63L1160.29 -5.78223Z" stroke="white" stroke-opacity="0.04"/>
<path d="M1320.29 677.218H1399.71L1439.42 746L1399.71 814.782H1320.29L1280.58 746L1320.29 677.218Z" stroke="white" stroke-opacity="0.04"/>
<path d="M1320.29 472.218H1399.71L1439.42 541L1399.71 609.782H1320.29L1280.58 541L1320.29 472.218Z" stroke="white" stroke-opacity="0.04"/>
<path d="M1320.29 267.218H1399.71L1439.42 336L1399.71 404.782H1320.29L1280.58 336L1320.29 267.218Z" stroke="white" stroke-opacity="0.04"/>
<path d="M1320.29 62.2178H1399.71L1439.42 131L1399.71 199.782H1320.29L1280.58 131L1320.29 62.2178Z" stroke="white" stroke-opacity="0.04"/>
<path d="M1320.29 540.218H1399.71L1439.42 609L1399.71 677.782H1320.29L1280.58 609L1320.29 540.218Z" stroke="white" stroke-opacity="0.04"/>
<path d="M1320.29 335.218H1399.71L1439.42 404L1399.71 472.782H1320.29L1280.58 404L1320.29 335.218Z" stroke="white" stroke-opacity="0.04"/>
<path d="M1320.29 130.218H1399.71L1439.42 199L1399.71 267.782H1320.29L1280.58 199L1320.29 130.218Z" stroke="white" stroke-opacity="0.04"/>
<path d="M1320.29 -74.7822H1399.71L1439.42 -6L1399.71 62.7822L1320.29 62.7822L1280.58 -6L1320.29 -74.7822Z" stroke="white" stroke-opacity="0.04"/>
<path d="M1320.29 609.218H1399.71L1439.42 678L1399.71 746.782H1320.29L1280.58 678L1320.29 609.218Z" stroke="white" stroke-opacity="0.04"/>
<path d="M1320.29 404.218H1399.71L1439.42 473L1399.71 541.782H1320.29L1280.58 473L1320.29 404.218Z" stroke="white" stroke-opacity="0.04"/>
<path d="M1320.29 199.218H1399.71L1439.42 268L1399.71 336.782H1320.29L1280.58 268L1320.29 199.218Z" stroke="white" stroke-opacity="0.04"/>
<path d="M1320.29 -5.78223H1399.71L1439.42 63L1399.71 131.782H1320.29L1280.58 63L1320.29 -5.78223Z" stroke="white" stroke-opacity="0.04"/>
</svg>
