<svg width="1440" height="197" viewBox="0 0 1440 197" fill="none" xmlns="http://www.w3.org/2000/svg">
<path d="M40.2881 62.2178H119.711L159.423 131L119.711 199.782H40.2881L0.576172 131L40.2881 62.2178Z" stroke="white" stroke-opacity="0.04"/>
<path d="M40.2881 130.218H119.711L159.423 199L119.711 267.782H40.2881L0.576172 199L40.2881 130.218Z" stroke="white" stroke-opacity="0.04"/>
<path d="M40.2881 -74.7822H119.711L159.423 -6L119.711 62.7822L40.2881 62.7822L0.576172 -6L40.2881 -74.7822Z" stroke="white" stroke-opacity="0.04"/>
<path d="M40.2881 -5.78223H119.711L159.423 63L119.711 131.782H40.2881L0.576172 63L40.2881 -5.78223Z" stroke="white" stroke-opacity="0.04"/>
<path d="M200.288 62.2178H279.711L319.423 131L279.711 199.782H200.288L160.576 131L200.288 62.2178Z" stroke="white" stroke-opacity="0.04"/>
<path d="M200.288 130.218H279.711L319.423 199L279.711 267.782H200.288L160.576 199L200.288 130.218Z" stroke="white" stroke-opacity="0.04"/>
<path d="M200.288 -74.7822H279.711L319.423 -6L279.711 62.7822L200.288 62.7822L160.576 -6L200.288 -74.7822Z" stroke="white" stroke-opacity="0.04"/>
<path d="M200.288 -5.78223H279.711L319.423 63L279.711 131.782H200.288L160.576 63L200.288 -5.78223Z" stroke="white" stroke-opacity="0.04"/>
<path d="M360.288 62.2178H439.711L479.423 131L439.711 199.782H360.288L320.576 131L360.288 62.2178Z" stroke="white" stroke-opacity="0.04"/>
<path d="M360.288 130.218H439.711L479.423 199L439.711 267.782H360.288L320.576 199L360.288 130.218Z" stroke="white" stroke-opacity="0.04"/>
<path d="M360.288 -74.7822H439.711L479.423 -6L439.711 62.7822L360.288 62.7822L320.576 -6L360.288 -74.7822Z" stroke="white" stroke-opacity="0.04"/>
<path d="M360.288 -5.78223H439.711L479.423 63L439.711 131.782H360.288L320.576 63L360.288 -5.78223Z" stroke="white" stroke-opacity="0.04"/>
<path d="M520.288 62.2178H599.711L639.423 131L599.711 199.782H520.288L480.576 131L520.288 62.2178Z" stroke="white" stroke-opacity="0.04"/>
<path d="M520.288 130.218H599.711L639.423 199L599.711 267.782H520.288L480.576 199L520.288 130.218Z" stroke="white" stroke-opacity="0.04"/>
<path d="M520.288 -74.7822H599.711L639.423 -6L599.711 62.7822L520.288 62.7822L480.576 -6L520.288 -74.7822Z" stroke="white" stroke-opacity="0.04"/>
<path d="M520.288 -5.78223H599.711L639.423 63L599.711 131.782H520.288L480.576 63L520.288 -5.78223Z" stroke="white" stroke-opacity="0.04"/>
<path d="M680.288 62.2178H759.711L799.423 131L759.711 199.782H680.288L640.576 131L680.288 62.2178Z" stroke="white" stroke-opacity="0.04"/>
<path d="M680.288 130.218H759.711L799.423 199L759.711 267.782H680.288L640.576 199L680.288 130.218Z" stroke="white" stroke-opacity="0.04"/>
<path d="M680.288 -74.7822H759.711L799.423 -6L759.711 62.7822L680.288 62.7822L640.576 -6L680.288 -74.7822Z" stroke="white" stroke-opacity="0.04"/>
<path d="M680.288 -5.78223H759.711L799.423 63L759.711 131.782H680.288L640.576 63L680.288 -5.78223Z" stroke="white" stroke-opacity="0.04"/>
<path d="M840.288 62.2178H919.711L959.423 131L919.711 199.782H840.288L800.576 131L840.288 62.2178Z" stroke="white" stroke-opacity="0.04"/>
<path d="M840.288 130.218H919.711L959.423 199L919.711 267.782H840.288L800.576 199L840.288 130.218Z" stroke="white" stroke-opacity="0.04"/>
<path d="M840.288 -74.7822H919.711L959.423 -6L919.711 62.7822L840.288 62.7822L800.576 -6L840.288 -74.7822Z" stroke="white" stroke-opacity="0.04"/>
<path d="M840.288 -5.78223H919.711L959.423 63L919.711 131.782H840.288L800.576 63L840.288 -5.78223Z" stroke="white" stroke-opacity="0.04"/>
<path d="M1000.29 62.2178H1079.71L1119.42 131L1079.71 199.782H1000.29L960.576 131L1000.29 62.2178Z" stroke="white" stroke-opacity="0.04"/>
<path d="M1000.29 130.218H1079.71L1119.42 199L1079.71 267.782H1000.29L960.576 199L1000.29 130.218Z" stroke="white" stroke-opacity="0.04"/>
<path d="M1000.29 -74.7822H1079.71L1119.42 -6L1079.71 62.7822L1000.29 62.7822L960.576 -6L1000.29 -74.7822Z" stroke="white" stroke-opacity="0.04"/>
<path d="M1000.29 -5.78223H1079.71L1119.42 63L1079.71 131.782H1000.29L960.576 63L1000.29 -5.78223Z" stroke="white" stroke-opacity="0.04"/>
<path d="M1160.29 62.2178H1239.71L1279.42 131L1239.71 199.782H1160.29L1120.58 131L1160.29 62.2178Z" stroke="white" stroke-opacity="0.04"/>
<path d="M1160.29 130.218H1239.71L1279.42 199L1239.71 267.782H1160.29L1120.58 199L1160.29 130.218Z" stroke="white" stroke-opacity="0.04"/>
<path d="M1160.29 -74.7822H1239.71L1279.42 -6L1239.71 62.7822L1160.29 62.7822L1120.58 -6L1160.29 -74.7822Z" stroke="white" stroke-opacity="0.04"/>
<path d="M1160.29 -5.78223H1239.71L1279.42 63L1239.71 131.782H1160.29L1120.58 63L1160.29 -5.78223Z" stroke="white" stroke-opacity="0.04"/>
<path d="M1320.29 62.2178H1399.71L1439.42 131L1399.71 199.782H1320.29L1280.58 131L1320.29 62.2178Z" stroke="white" stroke-opacity="0.04"/>
<path d="M1320.29 130.218H1399.71L1439.42 199L1399.71 267.782H1320.29L1280.58 199L1320.29 130.218Z" stroke="white" stroke-opacity="0.04"/>
<path d="M1320.29 -74.7822H1399.71L1439.42 -6L1399.71 62.7822L1320.29 62.7822L1280.58 -6L1320.29 -74.7822Z" stroke="white" stroke-opacity="0.04"/>
<path d="M1320.29 -5.78223H1399.71L1439.42 63L1399.71 131.782H1320.29L1280.58 63L1320.29 -5.78223Z" stroke="white" stroke-opacity="0.04"/>
</svg>
