<svg width="44" height="44" viewBox="0 0 44 44" fill="none" xmlns="http://www.w3.org/2000/svg">
<path d="M21.9987 21.9998C27.0613 21.9998 31.1654 17.8958 31.1654 12.8332C31.1654 7.77056 27.0613 3.6665 21.9987 3.6665C16.9361 3.6665 12.832 7.77056 12.832 12.8332C12.832 17.8958 16.9361 21.9998 21.9987 21.9998Z" stroke="#0B113B" stroke-linecap="round" stroke-linejoin="round"/>
<path d="M6.25 40.3333C6.25 33.2383 13.3083 27.5 21.9983 27.5C23.7583 27.5 25.4633 27.7383 27.0583 28.1783" stroke="#0B113B" stroke-linecap="round" stroke-linejoin="round"/>
<path d="M40.3346 32.9998C40.3346 34.3748 39.9497 35.6765 39.2713 36.7765C38.8863 37.4365 38.3913 38.0232 37.823 38.4998C36.5396 39.6548 34.853 40.3332 33.0013 40.3332C30.3246 40.3332 27.9963 38.9032 26.7313 36.7765C26.0529 35.6765 25.668 34.3748 25.668 32.9998C25.668 30.6898 26.7313 28.6182 28.418 27.2798C29.683 26.2715 31.278 25.6665 33.0013 25.6665C37.053 25.6665 40.3346 28.9482 40.3346 32.9998Z" stroke="#0B113B" stroke-miterlimit="10" stroke-linecap="round" stroke-linejoin="round"/>
<path d="M30.1406 32.9998L31.9556 34.8147L35.8606 31.2031" stroke="#0B113B" stroke-linecap="round" stroke-linejoin="round"/>
</svg>
