<svg width="44" height="44" viewBox="0 0 44 44" fill="none" xmlns="http://www.w3.org/2000/svg">
<path d="M17.924 40L15.684 32.132C14.0067 31.1467 12.64 29.7553 11.584 27.958C10.528 26.1607 10 24.1747 10 22C10 19.8253 10.528 17.8393 11.584 16.042C12.64 14.2447 14.0067 12.8533 15.684 11.868L17.924 4H26.078L28.316 11.87C29.9933 12.854 31.36 14.2447 32.416 16.042C33.472 17.8393 34 19.8253 34 22C34 24.1747 33.472 26.1607 32.416 27.958C31.36 29.7553 29.9933 31.1467 28.316 32.132L26.076 40H17.924ZM22 32C24.7667 32 27.1253 31.0247 29.076 29.074C31.0267 27.1233 32.0013 24.7653 32 22C31.9987 19.2347 31.0233 16.8767 29.074 14.926C27.1247 12.9753 24.7667 12 22 12C19.2333 12 16.8753 12.9753 14.926 14.926C12.9767 16.8767 12.0013 19.2347 12 22C11.9987 24.7653 12.974 27.124 14.926 29.076C16.878 31.028 19.236 32.0027 22 32ZM18.122 10.654C18.8153 10.4353 19.4767 10.27 20.106 10.158C20.7353 10.0447 21.3667 9.988 22 9.988C22.6333 9.988 23.2647 10.0447 23.894 10.158C24.5233 10.2713 25.184 10.4367 25.876 10.654L24.54 6H19.464L18.122 10.654ZM19.462 38H24.538L25.878 33.346C25.1847 33.5647 24.5233 33.722 23.894 33.818C23.2647 33.914 22.6333 33.9613 22 33.96C21.3667 33.9587 20.7353 33.9107 20.106 33.816C19.4767 33.7213 18.816 33.564 18.124 33.344L19.462 38Z" fill="#0B113B"/>
<path d="M21.75 26.5C24.3734 26.5 26.5 24.3734 26.5 21.75C26.5 19.1266 24.3734 17 21.75 17C19.1266 17 17 19.1266 17 21.75C17 24.3734 19.1266 26.5 21.75 26.5Z" stroke="#0B113B" stroke-linecap="round" stroke-linejoin="round"/>
<path d="M27 27L26 26" stroke="#0B113B" stroke-linecap="round" stroke-linejoin="round"/>
</svg>
