<svg width="44" height="44" viewBox="0 0 44 44" fill="none" xmlns="http://www.w3.org/2000/svg">
<path d="M15.8984 26.2715C15.8984 28.6365 17.7134 30.5432 19.9684 30.5432H24.5701C26.5318 30.5432 28.1268 28.8749 28.1268 26.8215C28.1268 24.5849 27.1551 23.7965 25.7068 23.2832L18.3184 20.7165C16.8701 20.2032 15.8984 19.4149 15.8984 17.1782C15.8984 15.1249 17.4934 13.4565 19.4551 13.4565H24.0568C26.3118 13.4565 28.1268 15.3632 28.1268 17.7282" stroke="white" stroke-width="1.5" stroke-linecap="round" stroke-linejoin="round"/>
<path d="M22 11V33" stroke="white" stroke-width="1.5" stroke-linecap="round" stroke-linejoin="round"/>
<path d="M22.0013 40.3332C32.1265 40.3332 40.3346 32.1251 40.3346 21.9998C40.3346 11.8746 32.1265 3.6665 22.0013 3.6665C11.8761 3.6665 3.66797 11.8746 3.66797 21.9998C3.66797 32.1251 11.8761 40.3332 22.0013 40.3332Z" stroke="white" stroke-width="1.5" stroke-linecap="round" stroke-linejoin="round"/>
</svg>
