<svg width="44" height="44" viewBox="0 0 44 44" fill="none" xmlns="http://www.w3.org/2000/svg">
<path d="M22 10.1934H40.3333" stroke="#242429" stroke-width="1.5" stroke-miterlimit="10" stroke-linecap="round" stroke-linejoin="round"/>
<path d="M26.07 3.6665H36.2633C39.5267 3.6665 40.3333 4.47317 40.3333 7.69984V15.2348C40.3333 18.4615 39.5267 19.2682 36.2633 19.2682H26.07C22.8067 19.2682 22 18.4615 22 15.2348V7.69984C22 4.47317 22.8067 3.6665 26.07 3.6665Z" stroke="#242429" stroke-width="1.5" stroke-linecap="round" stroke-linejoin="round"/>
<path d="M3.66797 31.2769H22.0013" stroke="#242429" stroke-width="1.5" stroke-miterlimit="10" stroke-linecap="round" stroke-linejoin="round"/>
<path d="M7.73797 24.75H17.9313C21.1946 24.75 22.0013 25.5567 22.0013 28.7833V36.3183C22.0013 39.545 21.1946 40.3517 17.9313 40.3517H7.73797C4.47464 40.3517 3.66797 39.545 3.66797 36.3183V28.7833C3.66797 25.5567 4.47464 24.75 7.73797 24.75Z" stroke="#242429" stroke-width="1.5" stroke-linecap="round" stroke-linejoin="round"/>
<path d="M40.3333 27.5C40.3333 34.595 34.595 40.3333 27.5 40.3333L29.425 37.125" stroke="#242429" stroke-width="1.5" stroke-linecap="round" stroke-linejoin="round"/>
<path d="M3.66797 16.4998C3.66797 9.40484 9.4063 3.6665 16.5013 3.6665L14.5763 6.87484" stroke="#242429" stroke-width="1.5" stroke-linecap="round" stroke-linejoin="round"/>
</svg>
