<svg width="44" height="44" viewBox="0 0 44 44" fill="none" xmlns="http://www.w3.org/2000/svg">
<path d="M33.3983 31.7778V29.3333H37.2411V31.7778H33.3983ZM33.3983 23.2222V20.7778H39.6206V23.2222H33.3983ZM33.3983 14.6667V12.1611H42V14.6667H33.3983ZM10.4273 44L7.76235 34.3836C5.76838 33.1793 4.14244 31.4787 2.88451 29.282C1.62659 27.0853 0.998417 24.6579 1 22C1.00159 19.3421 1.62976 16.9147 2.88451 14.718C4.14244 12.5213 5.76838 10.8207 7.76235 9.61644L10.4273 0L20.1283 0L22.7908 9.61889C24.7864 10.8216 26.4123 12.5213 27.6687 14.718C28.925 16.9147 29.5532 19.3421 29.5532 22C29.5532 24.6579 28.925 27.0853 27.6687 29.282C26.4123 31.4787 24.7864 33.1793 22.7908 34.3836L20.1259 44H10.4273ZM15.2766 34.2222C18.5681 34.2222 21.3743 33.0301 23.695 30.646C26.0158 28.2619 27.1753 25.3799 27.1738 22C27.1722 18.6201 26.0118 15.7381 23.6926 13.354C21.3735 10.9699 18.5681 9.77778 15.2766 9.77778C11.985 9.77778 9.1797 10.9699 6.86054 13.354C4.54139 15.7381 3.38102 18.6201 3.37944 22C3.37785 25.3799 4.53822 28.2627 6.86054 30.6484C9.18287 33.0342 11.9882 34.2255 15.2766 34.2222ZM10.6629 8.13267C11.4877 7.86541 12.2745 7.66333 13.0233 7.52644C13.772 7.38793 14.5231 7.31867 15.2766 7.31867C16.0301 7.31867 16.7812 7.38793 17.5299 7.52644C18.2786 7.66496 19.0647 7.86704 19.8879 8.13267L18.2985 2.44444H12.2571L10.6629 8.13267ZM12.2571 41.5556H18.2961L19.8903 35.8673C19.0654 36.1346 18.2786 36.3269 17.5299 36.4442C16.7812 36.5616 16.0301 36.6194 15.2766 36.6178C14.5231 36.6161 13.772 36.5575 13.0233 36.4418C12.2745 36.3261 11.4885 36.1338 10.6653 35.8649L12.2571 41.5556Z" fill="white"/>
<path d="M7.875 18.625V23.125C7.875 25.9532 7.875 27.3677 8.754 28.246C9.633 29.1242 11.0468 29.125 13.875 29.125H15M7.875 18.625L8.9025 16.9863C9.54825 15.9543 9.8715 15.4382 10.38 15.1562C10.8885 14.875 11.4975 14.875 12.7148 14.875H17.3272C18.5715 14.875 19.194 14.875 19.7092 15.1667C20.226 15.4592 20.5455 15.9925 21.186 17.0598L22.125 18.625M7.875 18.625H22.125M22.125 22V18.625M15 18.625V14.875M13.5 20.875H16.5M18 25.75V24.625C18 24.2272 18.158 23.8456 18.4393 23.5643C18.7206 23.283 19.1022 23.125 19.5 23.125C19.8978 23.125 20.2794 23.283 20.5607 23.5643C20.842 23.8456 21 24.2272 21 24.625V25.75M18 25.75H21M18 25.75C17.7016 25.75 17.4155 25.8685 17.2045 26.0795C16.9935 26.2905 16.875 26.5766 16.875 26.875V28C16.875 28.2984 16.9935 28.5845 17.2045 28.7955C17.4155 29.0065 17.7016 29.125 18 29.125H21C21.2984 29.125 21.5845 29.0065 21.7955 28.7955C22.0065 28.5845 22.125 28.2984 22.125 28V26.875C22.125 26.5766 22.0065 26.2905 21.7955 26.0795C21.5845 25.8685 21.2984 25.75 21 25.75" stroke="white" stroke-width="0.8" stroke-linecap="round" stroke-linejoin="round"/>
</svg>
