<svg width="44" height="44" viewBox="0 0 44 44" fill="none" xmlns="http://www.w3.org/2000/svg">
<path d="M17.0664 26.95L19.8164 29.7L27.1497 22.3667" stroke="white" stroke-width="1.5" stroke-linecap="round" stroke-linejoin="round"/>
<path d="M18.3346 10.9998H25.668C29.3346 10.9998 29.3346 9.1665 29.3346 7.33317C29.3346 3.6665 27.5013 3.6665 25.668 3.6665H18.3346C16.5013 3.6665 14.668 3.6665 14.668 7.33317C14.668 10.9998 16.5013 10.9998 18.3346 10.9998Z" stroke="white" stroke-width="1.5" stroke-miterlimit="10" stroke-linecap="round" stroke-linejoin="round"/>
<path d="M29.3333 7.37012C35.4383 7.70012 38.5 9.95512 38.5 18.3335V29.3335C38.5 36.6668 36.6667 40.3335 27.5 40.3335H16.5C7.33333 40.3335 5.5 36.6668 5.5 29.3335V18.3335C5.5 9.97345 8.56167 7.70012 14.6667 7.37012" stroke="white" stroke-width="1.5" stroke-miterlimit="10" stroke-linecap="round" stroke-linejoin="round"/>
</svg>
