<svg width="44" height="44" viewBox="0 0 44 44" fill="none" xmlns="http://www.w3.org/2000/svg">
<path d="M26.6392 17.3615L17.3625 26.6382C16.1708 25.4465 15.4375 23.8149 15.4375 21.9999C15.4375 18.3699 18.3708 15.4365 22.0008 15.4365C23.8158 15.4365 25.4475 16.1699 26.6392 17.3615Z" stroke="#242429" stroke-width="1.5" stroke-linecap="round" stroke-linejoin="round"/>
<path d="M32.6717 10.5784C29.4633 8.15838 25.7967 6.83838 22.0017 6.83838C15.53 6.83838 9.49833 10.6517 5.3 17.2517C3.65 19.8367 3.65 24.1817 5.3 26.7667C6.74833 29.04 8.435 31.0017 10.2683 32.5784" stroke="#242429" stroke-width="1.5" stroke-linecap="round" stroke-linejoin="round"/>
<path d="M15.4375 35.8052C17.5275 36.6852 19.7458 37.1619 22.0008 37.1619C28.4725 37.1619 34.5042 33.3486 38.7025 26.7486C40.3525 24.1636 40.3525 19.8186 38.7025 17.2336C38.0975 16.2802 37.4375 15.3819 36.7592 14.5386" stroke="#242429" stroke-width="1.5" stroke-linecap="round" stroke-linejoin="round"/>
<path d="M28.4356 23.2832C27.959 25.8682 25.8506 27.9765 23.2656 28.4532" stroke="#242429" stroke-width="1.5" stroke-linecap="round" stroke-linejoin="round"/>
<path d="M17.363 26.6382L3.66797 40.3332" stroke="#242429" stroke-width="1.5" stroke-linecap="round" stroke-linejoin="round"/>
<path d="M40.3317 3.6665L26.6367 17.3615" stroke="#242429" stroke-width="1.5" stroke-linecap="round" stroke-linejoin="round"/>
</svg>
