<svg width="44" height="44" viewBox="0 0 44 44" fill="none" xmlns="http://www.w3.org/2000/svg">
<path d="M22.0013 33.3664C26.0514 33.3664 29.3346 30.0831 29.3346 26.033C29.3346 21.983 26.0514 18.6997 22.0013 18.6997C17.9512 18.6997 14.668 21.983 14.668 26.033C14.668 30.0831 17.9512 33.3664 22.0013 33.3664Z" stroke="#242429" stroke-width="1.5" stroke-miterlimit="10" stroke-linecap="round" stroke-linejoin="round"/>
<path d="M22.4596 23.7417V25.4467C22.4596 26.0884 22.1296 26.6934 21.5613 27.0234L20.168 27.8667" stroke="#242429" stroke-width="1.5" stroke-miterlimit="10" stroke-linecap="round" stroke-linejoin="round"/>
<path d="M14.6681 40.3333H29.3348C36.7048 40.3333 38.0248 37.3817 38.4098 33.7883L39.7848 19.1217C40.2798 14.6483 38.9965 11 31.1681 11H12.8348C5.00647 11 3.72314 14.6483 4.21814 19.1217L5.59314 33.7883C5.97814 37.3817 7.29814 40.3333 14.6681 40.3333Z" stroke="#242429" stroke-width="1.5" stroke-miterlimit="10" stroke-linecap="round" stroke-linejoin="round"/>
<path d="M14.668 10.9998V9.53317C14.668 6.28817 14.668 3.6665 20.5346 3.6665H23.468C29.3346 3.6665 29.3346 6.28817 29.3346 9.53317V10.9998" stroke="#242429" stroke-width="1.5" stroke-miterlimit="10" stroke-linecap="round" stroke-linejoin="round"/>
<path d="M39.6916 20.1665C36.5199 22.4765 32.9999 24.0898 29.3516 25.0065" stroke="#242429" stroke-width="1.5" stroke-miterlimit="10" stroke-linecap="round" stroke-linejoin="round"/>
<path d="M4.80469 20.6616C7.86635 22.7516 11.203 24.2366 14.668 25.08" stroke="#242429" stroke-width="1.5" stroke-miterlimit="10" stroke-linecap="round" stroke-linejoin="round"/>
</svg>
