<svg width="18" height="9" viewBox="0 0 18 9" fill="none" xmlns="http://www.w3.org/2000/svg">
<path d="M16.6027 0.237009L9.57519 7.15351C9.42186 7.3052 9.21488 7.39028 8.99919 7.39028C8.7835 7.39028 8.57652 7.3052 8.42319 7.15351L1.39569 0.238509C1.24141 0.0868959 1.03375 0.00194168 0.817438 0.00194168C0.60113 0.00194168 0.393473 0.0868959 0.239189 0.238509C0.163216 0.312575 0.102839 0.401098 0.0616112 0.498864C0.0203857 0.596629 -0.000852585 0.701658 -0.000852585 0.80776C-0.000852585 0.913861 0.0203857 1.01889 0.0616112 1.11665C0.102839 1.21442 0.163216 1.30294 0.239189 1.37701L7.26519 8.29201C7.72797 8.7464 8.35062 9.00098 8.99919 9.00098C9.64775 9.00098 10.2704 8.7464 10.7332 8.29201L17.7592 1.37701C17.8354 1.30292 17.896 1.2143 17.9373 1.1164C17.9787 1.0185 18 0.913292 18 0.807009C18 0.700727 17.9787 0.595524 17.9373 0.49762C17.896 0.399715 17.8354 0.311098 17.7592 0.237009C17.6049 0.0853949 17.3972 0.000440598 17.1809 0.000440598C16.9646 0.000440598 16.757 0.0853949 16.6027 0.237009Z" fill="#0B113B"/>
</svg>
