<svg width="44" height="44" viewBox="0 0 44 44" fill="none" xmlns="http://www.w3.org/2000/svg">
<path d="M39.952 31.3244C38.8886 30.261 37.8253 29.1794 36.7436 28.116C36.597 27.9694 36.4503 27.8044 36.2853 27.6577C36.2017 27.5723 36.1018 27.5045 35.9917 27.4582C35.8815 27.4119 35.7632 27.3881 35.6436 27.3881C35.5241 27.3881 35.4058 27.4119 35.2956 27.4582C35.1855 27.5045 35.0856 27.5723 35.002 27.6577C34.9161 27.7429 34.8479 27.8443 34.8013 27.956C34.7548 28.0677 34.7308 28.1875 34.7308 28.3085C34.7308 28.4295 34.7548 28.5493 34.8013 28.6611C34.8479 28.7728 34.9161 28.8741 35.002 28.9594L37.092 31.0494H17.017C15.9375 31.0494 14.9023 30.6206 14.1391 29.8573C13.3758 29.094 12.947 28.0588 12.947 26.9794C12.947 25.8999 13.3758 24.8647 14.1391 24.1014C14.9023 23.3382 15.9375 22.9094 17.017 22.9094H22.517C23.291 22.9094 24.0575 22.7569 24.7726 22.4607C25.4877 22.1645 26.1375 21.7303 26.6848 21.183C27.2321 20.6357 27.6663 19.9859 27.9625 19.2708C28.2587 18.5557 28.4111 17.7892 28.4111 17.0152C28.4111 16.2412 28.2587 15.4747 27.9625 14.7596C27.6663 14.0445 27.2321 13.3947 26.6848 12.8474C26.1375 12.3001 25.4877 11.8659 24.7726 11.5697C24.0575 11.2735 23.291 11.121 22.517 11.121H12.8553C12.6281 10.0082 11.9959 9.01927 11.081 8.34609C10.1662 7.67292 9.03399 7.36341 7.90392 7.47757C6.77385 7.59173 5.72642 8.12142 4.96471 8.96397C4.20299 9.80651 3.78125 10.9019 3.78125 12.0377C3.78125 13.1735 4.20299 14.2689 4.96471 15.1114C5.72642 15.954 6.77385 16.4837 7.90392 16.5978C9.03399 16.712 10.1662 16.4025 11.081 15.7293C11.9959 15.0561 12.6281 14.0672 12.8553 12.9544H22.517C23.594 12.9544 24.6269 13.3822 25.3884 14.1437C26.15 14.9053 26.5778 15.9382 26.5778 17.0152C26.5778 18.0922 26.15 19.1251 25.3884 19.8866C24.6269 20.6482 23.594 21.076 22.517 21.076H17.017C16.2417 21.076 15.4741 21.2287 14.7579 21.5254C14.0416 21.8221 13.3909 22.2569 12.8427 22.8051C12.2945 23.3532 11.8597 24.004 11.563 24.7202C11.2663 25.4365 11.1136 26.2041 11.1136 26.9794C11.1136 27.7546 11.2663 28.5222 11.563 29.2385C11.8597 29.9547 12.2945 30.6055 12.8427 31.1536C13.3909 31.7018 14.0416 32.1367 14.7579 32.4333C15.4741 32.73 16.2417 32.8827 17.017 32.8827H37.1103L35.4603 34.5327C35.2953 34.6794 35.1486 34.8444 35.002 34.991C34.9161 35.0762 34.8479 35.1776 34.8013 35.2893C34.7548 35.401 34.7308 35.5208 34.7308 35.6419C34.7308 35.7629 34.7548 35.8827 34.8013 35.9944C34.8479 36.1061 34.9161 36.2075 35.002 36.2927C35.1755 36.4564 35.4051 36.5476 35.6436 36.5476C35.8822 36.5476 36.1118 36.4564 36.2853 36.2927L39.4936 33.0844L39.952 32.626C40.0379 32.5408 40.1061 32.4394 40.1526 32.3277C40.1992 32.216 40.2231 32.0962 40.2231 31.9752C40.2231 31.8542 40.1992 31.7344 40.1526 31.6227C40.1061 31.511 40.0379 31.4096 39.952 31.3244ZM8.36365 14.7877C7.81975 14.7877 7.28806 14.6264 6.83583 14.3242C6.38359 14.0221 6.03112 13.5926 5.82298 13.0901C5.61484 12.5876 5.56038 12.0346 5.66649 11.5012C5.7726 10.9677 6.03451 10.4777 6.4191 10.0931C6.8037 9.70855 7.2937 9.44664 7.82715 9.34053C8.3606 9.23442 8.91353 9.28888 9.41603 9.49702C9.91852 9.70516 10.348 10.0576 10.6502 10.5099C10.9524 10.9621 11.1136 11.4938 11.1136 12.0377C11.1136 12.767 10.8239 13.4665 10.3082 13.9822C9.79247 14.498 9.09299 14.7877 8.36365 14.7877Z" fill="#0B113B"/>
</svg>
