<svg width="44" height="44" viewBox="0 0 44 44" fill="none" xmlns="http://www.w3.org/2000/svg">
<path d="M19.3779 28.84C20.0323 29.5057 20.8725 29.8086 21.8985 29.7486C22.9245 29.69 23.6733 29.3157 24.1447 28.6257L32.2535 17.1422C32.542 16.7193 32.5174 16.3364 32.1796 15.9936C31.8418 15.6507 31.4639 15.625 31.0459 15.9164L19.6946 24.1107C18.988 24.5879 18.5947 25.3293 18.5145 26.335C18.4342 27.3407 18.722 28.1743 19.3779 28.84ZM21.9999 7.00001C23.51 7.00001 24.9146 7.14858 26.2136 7.44573C27.5127 7.74144 28.7835 8.19001 30.0263 8.79144C30.319 8.9243 30.5723 9.14073 30.7863 9.44073C31.0002 9.74215 31.0403 10.0236 30.9066 10.285C30.7729 10.5464 30.5118 10.7179 30.1234 10.7993C29.7349 10.8807 29.3901 10.8564 29.0889 10.7264C27.9912 10.1836 26.8652 9.78358 25.7112 9.52644C24.5585 9.27073 23.3214 9.14287 21.9999 9.14287C17.3203 9.14287 13.3352 10.8129 10.0447 14.1529C6.75423 17.4929 5.10969 21.5371 5.1111 26.2857C5.1111 27.7857 5.31376 29.2679 5.71909 30.7321C6.12442 32.1964 6.69583 33.5714 7.4333 34.8571H36.5664C37.3757 33.5 37.9654 32.0893 38.3355 30.625C38.7057 29.1607 38.8901 27.6429 38.8886 26.0714C38.8886 24.9771 38.769 23.8129 38.5298 22.5786C38.2905 21.3414 37.9035 20.17 37.3687 19.0643C37.2392 18.76 37.204 18.46 37.2631 18.1643C37.3236 17.8672 37.4805 17.63 37.7339 17.4529C37.9703 17.2914 38.2258 17.255 38.5002 17.3436C38.7747 17.4307 38.9773 17.6143 39.1082 17.8943C39.7978 19.3371 40.2834 20.7107 40.5649 22.015C40.8463 23.3193 40.9913 24.6629 40.9997 26.0457C41.0082 27.8886 40.8062 29.6086 40.3939 31.2057C39.9829 32.8014 39.3425 34.4114 38.4728 36.0357C38.3039 36.3214 38.047 36.5536 37.7022 36.7321C37.3574 36.9107 36.9788 37 36.5664 37H7.4333C7.04627 37 6.68738 36.9043 6.35664 36.7129C6.02731 36.52 5.75006 36.2393 5.52487 35.8707C4.8268 34.6207 4.23147 33.2107 3.73888 31.6407C3.24629 30.0707 3 28.2857 3 26.2857C3 23.6514 3.49259 21.165 4.47777 18.8264C5.46154 16.4879 6.8049 14.44 8.50785 12.6829C10.2108 10.9257 12.2248 9.53858 14.5498 8.52144C16.8748 7.5043 19.3582 6.99715 21.9999 7.00001Z" fill="#0B113B"/>
</svg>
