<svg width="44" height="44" viewBox="0 0 44 44" fill="none" xmlns="http://www.w3.org/2000/svg">
<path d="M22 40.3337C20.5003 40.3337 19.0667 39.7378 16.2012 38.548C9.06767 35.5853 5.5 34.104 5.5 31.6125V14.1995M22 40.3337C23.4997 40.3337 24.9333 39.7378 27.7988 38.548C34.9323 35.5853 38.5 34.104 38.5 31.6125V14.1995M22 40.3337V22.3102M5.5 14.1995C5.5 15.305 6.97033 16.0053 9.90917 17.4023L15.2625 19.9507C18.5717 21.5237 20.2217 22.312 22 22.312C23.7783 22.312 25.4283 21.5237 28.7375 19.9507L34.0908 17.4023C37.0297 16.0053 38.5 15.305 38.5 14.1995M5.5 14.1995C5.5 13.0922 6.97033 12.3918 9.90917 10.9948L13.75 9.16699M38.5 14.1995C38.5 13.0922 37.0297 12.3937 34.0908 10.9967L30.25 9.16699M11 24.1123L14.6667 25.9145" stroke="#0B113B" stroke-width="1.5" stroke-linecap="round" stroke-linejoin="round"/>
<path d="M22.006 3.66699V16.5003M22.006 16.5003C22.4882 16.5077 22.963 16.1703 23.315 15.7578L25.6654 12.9473M22.006 16.5003C21.5404 16.4948 21.0692 16.1593 20.697 15.7578L18.332 12.9473" stroke="#0B113B" stroke-width="1.5" stroke-linecap="round"/>
</svg>
