<svg width="44" height="44" viewBox="0 0 44 44" fill="none" xmlns="http://www.w3.org/2000/svg">
<path d="M6.875 9.625C6.51033 9.625 6.16059 9.48013 5.90273 9.22227C5.64487 8.96441 5.5 8.61467 5.5 8.25C5.5 7.88533 5.64487 7.53559 5.90273 7.27773C6.16059 7.01987 6.51033 6.875 6.875 6.875H37.125C37.4897 6.875 37.8394 7.01987 38.0973 7.27773C38.3551 7.53559 38.5 7.88533 38.5 8.25C38.5 8.61467 38.3551 8.96441 38.0973 9.22227C37.8394 9.48013 37.4897 9.625 37.125 9.625H6.875ZM12.375 4.125C12.0103 4.125 11.6606 3.98013 11.4027 3.72227C11.1449 3.46441 11 3.11467 11 2.75C11 2.38533 11.1449 2.03559 11.4027 1.77773C11.6606 1.51987 12.0103 1.375 12.375 1.375H31.625C31.9897 1.375 32.3394 1.51987 32.5973 1.77773C32.8551 2.03559 33 2.38533 33 2.75C33 3.11467 32.8551 3.46441 32.5973 3.72227C32.3394 3.98013 31.9897 4.125 31.625 4.125H12.375ZM0 35.75C0 36.844 0.434597 37.8932 1.20818 38.6668C1.98177 39.4404 3.03098 39.875 4.125 39.875H39.875C40.969 39.875 42.0182 39.4404 42.7918 38.6668C43.5654 37.8932 44 36.844 44 35.75V16.5C44 15.406 43.5654 14.3568 42.7918 13.5832C42.0182 12.8096 40.969 12.375 39.875 12.375H4.125C3.03098 12.375 1.98177 12.8096 1.20818 13.5832C0.434597 14.3568 0 15.406 0 16.5L0 35.75ZM4.125 37.125C3.76033 37.125 3.41059 36.9801 3.15273 36.7223C2.89487 36.4644 2.75 36.1147 2.75 35.75V16.5C2.75 16.1353 2.89487 15.7856 3.15273 15.5277C3.41059 15.2699 3.76033 15.125 4.125 15.125H39.875C40.2397 15.125 40.5894 15.2699 40.8473 15.5277C41.1051 15.7856 41.25 16.1353 41.25 16.5V35.75C41.25 36.1147 41.1051 36.4644 40.8473 36.7223C40.5894 36.9801 40.2397 37.125 39.875 37.125H4.125Z" fill="#0B113B"/>
</svg>
