<svg width="44" height="44" viewBox="0 0 44 44" fill="none" xmlns="http://www.w3.org/2000/svg">
<path d="M34.274 3H24.0299C23.7114 2.99977 23.4058 3.12448 23.1799 3.34688L2.7 23.6391C2.25168 24.0856 2 24.6898 2 25.3198C2 25.9497 2.25168 26.5539 2.7 27.0004L12.4499 36.6634C12.9006 37.1078 13.5105 37.3572 14.1462 37.3572C14.7819 37.3572 15.3918 37.1078 15.8424 36.6634L36.3165 16.3795C36.5409 16.1555 36.6667 15.8527 36.6665 15.5371V5.37857C36.668 5.06642 36.6072 4.75704 36.4876 4.46825C36.368 4.17947 36.192 3.91698 35.9696 3.6959C35.7472 3.47482 35.4829 3.29952 35.1919 3.18009C34.9009 3.06066 34.589 2.99946 34.274 3Z" stroke="#0B113B" stroke-linecap="round" stroke-linejoin="round"/>
<path d="M30.0026 12.2506C29.4752 12.2506 28.9596 12.0956 28.5211 11.8052C28.0825 11.5148 27.7408 11.102 27.5389 10.6191C27.3371 10.1362 27.2843 9.60477 27.3872 9.09211C27.4901 8.57944 27.744 8.10853 28.117 7.73892C28.4899 7.36931 28.9651 7.1176 29.4824 7.01563C29.9996 6.91365 30.5358 6.96599 31.0231 7.16602C31.5103 7.36605 31.9268 7.70479 32.2198 8.13941C32.5128 8.57403 32.6692 9.08499 32.6692 9.6077C32.6692 10.3086 32.3883 10.9809 31.8882 11.4765C31.3881 11.9721 30.7098 12.2506 30.0026 12.2506Z" fill="#0B113B"/>
<path d="M19.8359 40.0006L41.6691 18.3622C41.7777 18.2537 41.8632 18.1247 41.9205 17.9828C41.9777 17.8409 42.0056 17.6891 42.0025 17.5363V6.96484" stroke="#0B113B" stroke-linecap="round" stroke-linejoin="round"/>
</svg>
