<svg width="44" height="44" viewBox="0 0 44 44" fill="none" xmlns="http://www.w3.org/2000/svg">
<path d="M34.5 13.5H19.5M37 1C38.3261 1 39.5979 1.52678 40.5355 2.46447C41.4732 3.40215 42 4.67392 42 6V31C42 32.3261 41.4732 33.5978 40.5355 34.5355C39.5979 35.4732 38.3261 36 37 36L29.5025 35.9975L23.7675 41.7325C23.337 42.1629 22.7643 42.4215 22.1567 42.4597C21.5491 42.4979 20.9485 42.3131 20.4675 41.94L20.2325 41.7325L14.4975 35.9975L7 36C5.67392 36 4.40215 35.4732 3.46447 34.5355C2.52678 33.5978 2 32.3261 2 31V6C2 4.67392 2.52678 3.40215 3.46447 2.46447C4.40215 1.52678 5.67392 1 7 1H37Z" stroke="#0B113B" stroke-linecap="round" stroke-linejoin="round"/>
<path fill-rule="evenodd" clip-rule="evenodd" d="M11.9975 16C13.2475 16 14.4975 14.75 14.4975 13.5C14.4975 12.25 13.2475 11 11.9975 11C10.7475 11 9.5 12.25 9.5 13.5C9.5 14.75 10.7475 16 11.9975 16ZM11.9975 26C13.2475 26 14.4975 24.75 14.4975 23.5C14.4975 22.25 13.2475 21 11.9975 21C10.7475 21 9.5 22.25 9.5 23.5C9.5 24.75 10.7475 26 11.9975 26Z" fill="#0B113B"/>
<path d="M34.5 23.5H19.5" stroke="#0B113B" stroke-linecap="round" stroke-linejoin="round"/>
</svg>
