<svg width="44" height="44" viewBox="0 0 44 44" fill="none" xmlns="http://www.w3.org/2000/svg">
<path d="M34.2998 6.40758C30.8312 4.68241 26.5833 3.66675 22 3.66675C17.4167 3.66675 13.1707 4.68241 9.70017 6.40758C7.99883 7.25458 7.14817 7.67808 6.325 9.00908C5.50183 10.3401 5.5 11.6289 5.5 14.2047V20.6031C5.5 31.0219 13.827 36.8152 18.6505 39.2957C19.9962 39.9869 20.6672 40.3334 22 40.3334C23.3328 40.3334 24.0038 39.9869 25.3495 39.2957C30.1712 36.8134 38.5 31.0201 38.5 20.6012V14.2047C38.5 11.6289 38.5 10.3401 37.675 9.00908C36.85 7.67808 36.0012 7.25458 34.2998 6.40758Z" stroke="#0B113B" stroke-width="1.5" stroke-linecap="round" stroke-linejoin="round"/>
<path d="M22.0013 16.5002V18.3335M20.168 17.4168C20.168 17.9031 20.3611 18.3694 20.7049 18.7132C21.0488 19.057 21.5151 19.2502 22.0013 19.2502C22.4875 19.2502 22.9538 19.057 23.2977 18.7132C23.6415 18.3694 23.8346 17.9031 23.8346 17.4168C23.8346 16.9306 23.6415 16.4643 23.2977 16.1205C22.9538 15.7767 22.4875 15.5835 22.0013 15.5835C21.5151 15.5835 21.0488 15.7767 20.7049 16.1205C20.3611 16.4643 20.168 16.9306 20.168 17.4168Z" stroke="#0B113B" stroke-width="1.5" stroke-linecap="round" stroke-linejoin="round"/>
<path d="M23.375 25.6667H20.625L22 19.25L23.375 25.6667Z" stroke="#0B113B" stroke-width="1.5" stroke-linecap="round" stroke-linejoin="round"/>
</svg>
