<svg width="44" height="44" viewBox="0 0 44 44" fill="none" xmlns="http://www.w3.org/2000/svg">
<path d="M7.33203 36.6666V34.4116H9.58703V36.6666H7.33203ZM7.33203 29.8979V27.6411H9.58703V29.8961L7.33203 29.8979ZM7.33203 23.1274V20.8724H9.58703V23.1274H7.33203ZM7.33203 16.3588V14.1038H9.58703V16.3588H7.33203ZM7.33203 9.59009V7.33325H9.58703V9.58825L7.33203 9.59009ZM14.1007 36.6666V34.4116H16.3575V36.6666H14.1007ZM14.1007 23.1293V20.8724H16.3575V23.1274L14.1007 23.1293ZM14.1007 9.59009V7.33325H16.3575V9.58825L14.1007 9.59009ZM20.8712 36.6666V34.4116H23.1262V36.6666H20.8712ZM20.8712 29.8979V27.6411H23.1262V29.8961L20.8712 29.8979ZM20.8712 23.1274V20.8724H23.1262V23.1274H20.8712ZM20.8712 16.3588V14.1038H23.1262V16.3588H20.8712ZM20.8712 9.59009V7.33325H23.1262V9.58825L20.8712 9.59009ZM27.6399 36.6666V34.4116H29.8949V36.6666H27.6399ZM27.6399 23.1293V20.8724H29.8949V23.1274L27.6399 23.1293ZM27.6399 9.59009V7.33325H29.8949V9.58825L27.6399 9.59009ZM34.4085 36.6666V34.4116H36.6654V36.6666H34.4085ZM34.4085 29.8979V27.6411H36.6654V29.8961L34.4085 29.8979ZM34.4085 23.1274V20.8724H36.6654V23.1274H34.4085ZM34.4085 16.3588V14.1038H36.6654V16.3588H34.4085ZM34.4085 9.59009V7.33325H36.6654V9.58825L34.4085 9.59009Z" fill="#0B113B"/>
</svg>
