<svg width="44" height="44" viewBox="0 0 44 44" fill="none" xmlns="http://www.w3.org/2000/svg">
<path d="M34.2998 6.40783C30.8312 4.68266 26.5833 3.66699 22 3.66699C17.4167 3.66699 13.1707 4.68266 9.70017 6.40783C7.99883 7.25483 7.14817 7.67833 6.325 9.00933C5.50183 10.3403 5.5 11.6292 5.5 14.205V20.6033C5.5 31.0222 13.827 36.8155 18.6505 39.296C19.9962 39.9872 20.6672 40.3337 22 40.3337C23.3328 40.3337 24.0038 39.9872 25.3495 39.296C30.1712 36.8137 38.5 31.0203 38.5 20.6015V14.205C38.5 11.6292 38.5 10.3403 37.675 9.00933C36.85 7.67833 36.0012 7.25483 34.2998 6.40783Z" stroke="#0B113B" stroke-width="1.5" stroke-linecap="round" stroke-linejoin="round"/>
<path d="M22.0013 16.5007V18.334M20.168 17.4173C20.168 17.9035 20.3611 18.3699 20.7049 18.7137C21.0488 19.0575 21.5151 19.2507 22.0013 19.2507C22.4875 19.2507 22.9538 19.0575 23.2977 18.7137C23.6415 18.3699 23.8346 17.9035 23.8346 17.4173C23.8346 16.9311 23.6415 16.4648 23.2977 16.121C22.9538 15.7771 22.4875 15.584 22.0013 15.584C21.5151 15.584 21.0488 15.7771 20.7049 16.121C20.3611 16.4648 20.168 16.9311 20.168 17.4173Z" stroke="#0B113B" stroke-width="1.5" stroke-linecap="round" stroke-linejoin="round"/>
<path d="M23.375 25.6667H20.625L22 19.25L23.375 25.6667Z" stroke="#0B113B" stroke-width="1.5" stroke-linecap="round" stroke-linejoin="round"/>
</svg>
