<svg width="44" height="44" viewBox="0 0 44 44" fill="none" xmlns="http://www.w3.org/2000/svg">
<path d="M5.8125 13.64L22.0008 23.0083L38.0791 13.695" stroke="#0B113B" stroke-width="1.5" stroke-linecap="round" stroke-linejoin="round"/>
<path d="M22 39.6183V22.99" stroke="#0B113B" stroke-width="1.5" stroke-linecap="round" stroke-linejoin="round"/>
<path d="M18.2061 4.54663L8.41611 9.99168C6.19778 11.22 4.38281 14.3 4.38281 16.83V27.1884C4.38281 29.7184 6.19778 32.7983 8.41611 34.0267L18.2061 39.4717C20.2961 40.6267 23.7244 40.6267 25.8144 39.4717L35.6045 34.0267C37.8228 32.7983 39.6378 29.7184 39.6378 27.1884V16.83C39.6378 14.3 37.8228 11.22 35.6045 9.99168L25.8144 4.54663C23.7061 3.37329 20.2961 3.37329 18.2061 4.54663Z" stroke="#0B113B" stroke-width="1.5" stroke-linecap="round" stroke-linejoin="round"/>
<path d="M31.1678 24.2733V17.5633L13.7695 7.5166" stroke="#0B113B" stroke-width="1.5" stroke-linecap="round" stroke-linejoin="round"/>
</svg>
