<svg width="44" height="44" viewBox="0 0 44 44" fill="none" xmlns="http://www.w3.org/2000/svg">
<mask id="mask0_784_61738" style="mask-type:luminance" maskUnits="userSpaceOnUse" x="0" y="0" width="44" height="44">
<path d="M0 0H44V44H0V0Z" fill="white"/>
</mask>
<g mask="url(#mask0_784_61738)">
<path d="M41.0674 32.9536C42.9283 29.7261 44 25.9863 44 22C44 18.0151 42.9297 14.2767 41.0674 11.0492C41.0605 11.0325 41.0605 11.0159 41.0508 11.0007C41.0425 10.9855 41.0286 10.9758 41.0176 10.9633C39.0943 7.66102 36.339 4.90566 33.0381 2.98244C33.0228 2.97136 33.0145 2.95752 32.9993 2.94783C32.9827 2.93952 32.9661 2.93813 32.9481 2.93121C29.7233 1.0703 25.9849 0 22 0C18.0151 0 14.2794 1.0703 11.0519 2.92983C11.0353 2.93675 11.0173 2.93813 10.9993 2.94783C10.9841 2.95752 10.973 2.97275 10.9592 2.98383C7.65964 4.90704 4.90566 7.66102 2.98244 10.9605C2.97136 10.9744 2.95613 10.9841 2.94783 10.9993C2.93813 11.0145 2.93813 11.0339 2.92983 11.0492C1.0703 14.2781 0 18.0151 0 22C0 25.9863 1.0703 29.7219 2.92983 32.9481C2.93675 32.9661 2.93813 32.9841 2.94783 33.0007C2.95475 33.0132 2.96859 33.0187 2.9769 33.0284C4.90012 36.3348 7.65825 39.0943 10.9633 41.0189C10.9758 41.0286 10.9855 41.0425 11.0007 41.0522C11.0118 41.0591 11.0256 41.0563 11.0381 41.0619C14.267 42.9269 18.0096 44 22 44C25.9904 44 29.7316 42.9269 32.9633 41.0619C32.9744 41.0577 32.9882 41.0591 32.9993 41.0522C33.0145 41.0439 33.0228 41.03 33.0381 41.0189C36.3445 39.093 39.1026 36.3334 41.0259 33.0256C41.0328 33.0145 41.0452 33.0118 41.0508 33.0007C41.0605 32.9841 41.0605 32.9688 41.0674 32.9536ZM32.9356 40.0428L31.3682 37.329C31.2436 37.1144 30.9695 37.041 30.7549 37.1656C30.5402 37.2888 30.4669 37.563 30.5901 37.779L32.1561 40.4914C29.2636 42.0865 25.96 43.0183 22.4472 43.0917V39.9597C22.4472 39.7119 22.2465 39.5111 21.9986 39.5111C21.7508 39.5111 21.55 39.7119 21.55 39.9597V43.0903C18.0373 43.0169 14.7336 42.0851 11.8425 40.49L13.4085 37.7776C13.5331 37.563 13.4598 37.2888 13.2451 37.1642C13.0291 37.0382 12.755 37.113 12.6318 37.329L11.063 40.0414C8.16364 38.2774 5.71981 35.8336 3.95582 32.9356L6.66965 31.3682C6.88426 31.2436 6.95764 30.9709 6.83441 30.7549C6.7098 30.5402 6.43426 30.4641 6.22103 30.5901L3.50721 32.1561C1.91352 29.2636 0.981686 25.96 0.906917 22.4472H4.04028C4.28812 22.4472 4.48889 22.2465 4.48889 21.9986C4.48889 21.7508 4.28812 21.55 4.04028 21.55H0.909686C0.98307 18.0373 1.91491 14.7336 3.50998 11.8411L6.22242 13.4071C6.29303 13.4487 6.37057 13.4681 6.44672 13.4681C6.6018 13.4681 6.75272 13.3878 6.83718 13.2438C6.96041 13.0291 6.88703 12.7536 6.67241 12.6304L3.95859 11.063C5.72258 8.16364 8.1664 5.71981 11.0658 3.95582L12.6331 6.66965C12.7162 6.81364 12.8671 6.89395 13.0222 6.89395C13.0998 6.89395 13.1759 6.87457 13.2479 6.83441C13.4625 6.7098 13.5359 6.43565 13.4113 6.22103L11.8453 3.50721C14.7377 1.91352 18.0414 0.981686 21.5528 0.906917V4.04166C21.5528 4.28951 21.7549 4.49028 22.0028 4.49028C22.2506 4.49028 22.4514 4.28951 22.4514 4.04166V0.909686C25.9627 0.984454 29.2678 1.91629 32.1602 3.50998L30.5942 6.2238C30.4696 6.43842 30.543 6.71257 30.759 6.8358C30.8296 6.87734 30.9072 6.89672 30.9833 6.89672C31.137 6.89672 31.2893 6.81641 31.3724 6.67241L32.9384 3.95859C35.8377 5.72258 38.2816 8.16502 40.0456 11.0658L37.3331 12.6331C37.1185 12.7564 37.0437 13.0319 37.1684 13.2465C37.2514 13.3905 37.4024 13.4708 37.5574 13.4708C37.6336 13.4708 37.7111 13.4514 37.7817 13.4099L40.4942 11.8439C42.0892 14.7364 43.0211 18.04 43.0945 21.5528H39.9597C39.7119 21.5528 39.5097 21.7535 39.5097 22.0014C39.5097 22.2492 39.7119 22.45 39.9597 22.45H43.0903C43.0169 25.9627 42.0851 29.2664 40.49 32.1589L37.7776 30.5929C37.563 30.4682 37.2874 30.5416 37.1642 30.7576C37.0382 30.9722 37.113 31.2464 37.3276 31.371L40.0414 32.937C38.2774 35.835 35.835 38.2788 32.9356 40.0428Z" fill="#F7F7F8"/>
</g>
<path d="M16 20V18C16 14.69 17 12 22 12C27 12 28 14.69 28 18V20" stroke="#F7F7F8" stroke-width="1.6" stroke-linecap="round" stroke-linejoin="round"/>
<path d="M22 28.5C23.3807 28.5 24.5 27.3807 24.5 26C24.5 24.6193 23.3807 23.5 22 23.5C20.6193 23.5 19.5 24.6193 19.5 26C19.5 27.3807 20.6193 28.5 22 28.5Z" stroke="#F7F7F8" stroke-width="1.6" stroke-linecap="round" stroke-linejoin="round"/>
<path d="M27 32H17C13 32 12 31 12 27V25C12 21 13 20 17 20H27C31 20 32 21 32 25V27C32 31 31 32 27 32Z" stroke="#F7F7F8" stroke-width="1.6" stroke-linecap="round" stroke-linejoin="round"/>
</svg>
