<svg width="44" height="44" viewBox="0 0 44 44" fill="none" xmlns="http://www.w3.org/2000/svg">
<path d="M5.8125 13.6401L22.0008 23.0084L38.0791 13.6951" stroke="#F7F7F8" stroke-width="1.6" stroke-linecap="round" stroke-linejoin="round"/>
<path d="M22 39.6183V22.99" stroke="#F7F7F8" stroke-width="1.6" stroke-linecap="round" stroke-linejoin="round"/>
<path d="M18.2061 4.54675L8.41611 9.99181C6.19778 11.2201 4.38281 14.3001 4.38281 16.8301V27.1885C4.38281 29.7185 6.19778 32.7984 8.41611 34.0268L18.2061 39.4718C20.2961 40.6268 23.7244 40.6268 25.8144 39.4718L35.6045 34.0268C37.8228 32.7984 39.6378 29.7185 39.6378 27.1885V16.8301C39.6378 14.3001 37.8228 11.2201 35.6045 9.99181L25.8144 4.54675C23.7061 3.37341 20.2961 3.37341 18.2061 4.54675Z" stroke="#F7F7F8" stroke-width="1.6" stroke-linecap="round" stroke-linejoin="round"/>
<path d="M31.1678 24.2733V17.5633L13.7695 7.5166" stroke="#F7F7F8" stroke-width="1.6" stroke-linecap="round" stroke-linejoin="round"/>
</svg>
