<svg width="132" height="52" viewBox="0 0 132 52" fill="none" xmlns="http://www.w3.org/2000/svg">
<path d="M10.0015 25.5728C9.97601 25.1905 10.3724 24.9227 10.7176 25.0892L16.6886 27.9688C16.815 28.0298 16.9613 28.0348 17.0916 27.9826L23.246 25.5191C23.6017 25.3767 23.9789 25.6709 23.9272 26.0507L23.0337 32.6193C23.0147 32.7584 23.0551 32.899 23.145 33.0068L27.3898 38.0987C27.6352 38.393 27.4719 38.8426 27.0948 38.9109L20.5715 40.0908C20.4334 40.1158 20.3121 40.1977 20.2374 40.3165L16.7064 45.927C16.5023 46.2514 16.0242 46.235 15.8428 45.8974L12.7048 40.0581C12.6384 39.9344 12.523 39.8444 12.3869 39.81L5.95987 38.1856C5.58835 38.0917 5.45621 37.632 5.72119 37.3551L10.305 32.5662C10.4021 32.4648 10.4521 32.3273 10.4427 32.1872L10.0015 25.5728Z" fill="url(#paint0_linear_784_61671)"/>
<path d="M34.4506 5.43977C34.5665 5.07451 35.0333 4.97 35.2938 5.251L39.8011 10.1121C39.8965 10.215 40.0308 10.2731 40.1712 10.2721L46.8002 10.2258C47.1834 10.2231 47.427 10.6348 47.2403 10.9694L44.01 16.7582C43.9416 16.8808 43.9278 17.0265 43.9721 17.1597L46.0646 23.4499C46.1856 23.8135 45.8693 24.1725 45.4934 24.0983L38.9897 22.8149C38.852 22.7877 38.7092 22.8197 38.5962 22.903L33.2604 26.8368C32.952 27.0642 32.5129 26.8744 32.4673 26.4939L31.6781 19.9119C31.6614 19.7726 31.5869 19.6466 31.4727 19.5649L26.0826 15.706C25.771 15.4829 25.8159 15.0066 26.1636 14.8457L32.1796 12.0612C32.307 12.0022 32.4037 11.8924 32.4461 11.7586L34.4506 5.43977Z" fill="url(#paint1_linear_784_61671)"/>
<path d="M64.5679 0.741794C64.7608 0.41066 65.2392 0.410661 65.4321 0.741794L68.7685 6.4701C68.8391 6.5914 68.9575 6.67741 69.0947 6.70712L75.5737 8.11011C75.9482 8.19122 76.096 8.64618 75.8407 8.93193L71.4238 13.8752C71.3302 13.9799 71.285 14.1191 71.2992 14.2587L71.9669 20.8541C72.0056 21.2354 71.6185 21.5166 71.2679 21.362L65.2016 18.6889C65.0732 18.6322 64.9268 18.6322 64.7984 18.6889L58.7321 21.362C58.3815 21.5166 57.9945 21.2354 58.0331 20.8541L58.7008 14.2587C58.715 14.1191 58.6698 13.9799 58.5762 13.8752L54.1593 8.93193C53.904 8.64618 54.0518 8.19122 54.4263 8.11011L60.9053 6.70712C61.0425 6.67741 61.1609 6.5914 61.2315 6.4701L64.5679 0.741794Z" fill="url(#paint2_linear_784_61671)"/>
<path d="M94.3619 5.2474C94.6224 4.96631 95.0892 5.07067 95.2052 5.4359L97.2117 11.7541C97.2542 11.8879 97.351 11.9976 97.4784 12.0565L103.495 14.8391C103.843 14.9999 103.888 15.4762 103.577 15.6994L98.1877 19.5601C98.0736 19.6418 97.9991 19.7678 97.9824 19.9072L97.1954 26.4894C97.1499 26.8699 96.7108 27.0599 96.4023 26.8326L91.0653 22.9005C90.9523 22.8172 90.8095 22.7853 90.6718 22.8125L84.1685 24.098C83.7925 24.1723 83.4762 23.8135 83.597 23.4498L85.6875 17.1589C85.7317 17.0257 85.718 16.88 85.6495 16.7575L82.4173 10.9697C82.2305 10.6351 82.474 10.2234 82.8572 10.2259L89.4862 10.2701C89.6265 10.271 89.7608 10.2129 89.8562 10.1099L94.3619 5.2474Z" fill="url(#paint3_linear_784_61671)"/>
<path d="M120.597 25.0837C120.942 24.917 121.339 25.1845 121.314 25.5669L120.877 32.1816C120.867 32.3216 120.917 32.4592 121.014 32.5605L125.601 37.3466C125.866 37.6233 125.734 38.0831 125.363 38.1773L118.937 39.8055C118.801 39.84 118.686 39.9301 118.619 40.0538L115.485 45.895C115.304 46.2327 114.825 46.2494 114.621 45.9252L111.087 40.3168C111.012 40.1981 110.891 40.1162 110.752 40.0913L104.229 38.9153C103.851 38.8473 103.688 38.3978 103.933 38.1033L108.175 33.0089C108.265 32.901 108.305 32.7603 108.286 32.6213L107.388 26.0532C107.336 25.6735 107.713 25.379 108.069 25.5212L114.225 27.981C114.355 28.0331 114.502 28.028 114.628 27.967L120.597 25.0837Z" fill="url(#paint4_linear_784_61671)"/>
<defs>
<linearGradient id="paint0_linear_784_61671" x1="6.71635" y1="41.377" x2="26.6051" y2="27.9443" gradientUnits="userSpaceOnUse">
<stop stop-color="#A17C36"/>
<stop offset="0.5" stop-color="#FDEAA5"/>
<stop offset="1" stop-color="#A17C36"/>
</linearGradient>
<linearGradient id="paint1_linear_784_61671" x1="25.6215" y1="18.9532" x2="49.0418" y2="13.7101" gradientUnits="userSpaceOnUse">
<stop stop-color="#A17C36"/>
<stop offset="0.5" stop-color="#FDEAA5"/>
<stop offset="1" stop-color="#A17C36"/>
</linearGradient>
<linearGradient id="paint2_linear_784_61671" x1="53" y1="12" x2="77" y2="12" gradientUnits="userSpaceOnUse">
<stop stop-color="#A17C36"/>
<stop offset="0.5" stop-color="#FDEAA5"/>
<stop offset="1" stop-color="#A17C36"/>
</linearGradient>
<linearGradient id="paint3_linear_784_61671" x1="80.6167" y1="13.711" x2="104.039" y2="18.9464" gradientUnits="userSpaceOnUse">
<stop stop-color="#A17C36"/>
<stop offset="0.5" stop-color="#FDEAA5"/>
<stop offset="1" stop-color="#A17C36"/>
</linearGradient>
<linearGradient id="paint4_linear_784_61671" x1="104.712" y1="27.9485" x2="124.608" y2="41.3691" gradientUnits="userSpaceOnUse">
<stop stop-color="#A17C36"/>
<stop offset="0.5" stop-color="#FDEAA5"/>
<stop offset="1" stop-color="#A17C36"/>
</linearGradient>
</defs>
</svg>
