<svg width="44" height="44" viewBox="0 0 44 44" fill="none" xmlns="http://www.w3.org/2000/svg">
<path d="M40.8867 28.298L40.9841 27.998L42.4151 28.4629L42.3177 28.7629L40.8867 28.298Z" fill="#0B113B"/>
<path d="M41.4453 26.2956L41.5102 25.9866L42.9828 26.2995L42.9166 26.6086L41.4453 26.2956Z" fill="#0B113B"/>
<path d="M41.7852 24.236L41.8176 23.9231L43.3136 24.0802L43.2811 24.3932L41.7852 24.236Z" fill="#0B113B"/>
<path d="M41.8176 20.0743L41.7852 19.7614L43.2811 19.6042L43.3136 19.9172L41.8176 20.0743Z" fill="#0B113B"/>
<path d="M41.5102 18.0147L41.4453 17.707L42.9166 17.394L42.9815 17.7018L41.5102 18.0147Z" fill="#0B113B"/>
<path d="M40.988 15.9929L40.8906 15.6929L42.3203 15.228L42.4177 15.528L40.988 15.9929Z" fill="#0B113B"/>
<path d="M21.5625 0.434371C21.5625 0.194475 21.757 0 21.9969 0C22.2368 0 22.4312 0.194474 22.4312 0.434371V2.23284C22.4312 2.47274 22.2368 2.66722 21.9969 2.66722C21.757 2.66722 21.5625 2.47274 21.5625 2.23284V0.434371Z" fill="#0B113B"/>
<mask id="mask0_515_48197" style="mask-type:luminance" maskUnits="userSpaceOnUse" x="21" y="41" width="2" height="3">
<path d="M21.4922 41.7198C21.4922 41.4444 21.7154 41.2212 21.9908 41.2212C22.2662 41.2212 22.4895 41.4444 22.4895 41.7198V43.5014C22.4895 43.7768 22.2662 44.0001 21.9908 44.0001C21.7154 44.0001 21.4922 43.7768 21.4922 43.5014V41.7198Z" fill="white"/>
</mask>
<g mask="url(#mask0_515_48197)">
<path d="M21.5625 41.7647C21.5625 41.5248 21.757 41.3303 21.9969 41.3303C22.2368 41.3303 22.4312 41.5248 22.4312 41.7647V43.5619C22.4312 43.8018 22.2368 43.9962 21.9969 43.9962C21.757 43.9962 21.5625 43.8018 21.5625 43.5619V41.7647Z" fill="#0B113B"/>
</g>
<path d="M10.8421 3.54028C10.7222 3.3327 10.7931 3.06723 11.0006 2.94718C11.2084 2.82699 11.4742 2.8981 11.5942 3.10595L12.4934 4.66357C12.6133 4.87123 12.5421 5.13675 12.3344 5.25656C12.1268 5.3763 11.8615 5.30518 11.7417 5.09769L10.8421 3.54028Z" fill="#0B113B"/>
<path d="M31.5061 39.3312C31.3863 39.1236 31.4575 38.8581 31.6651 38.7383C31.8727 38.6185 32.138 38.6897 32.2578 38.8972L33.1575 40.4556C33.2774 40.6632 33.2062 40.9287 32.9985 41.0485C32.7909 41.1683 32.5256 41.0971 32.4058 40.8896L31.5061 39.3312Z" fill="#0B113B"/>
<path d="M3.10624 11.592C2.8987 11.4722 2.82752 11.2069 2.94725 10.9993C3.06705 10.7917 3.33254 10.7205 3.54013 10.8404L5.09757 11.74C5.30493 11.8598 5.3759 12.125 5.25609 12.3323C5.13635 12.5395 4.87135 12.6105 4.66406 12.4909L3.10624 11.592Z" fill="#0B113B"/>
<path d="M38.899 32.2571C38.6916 32.1373 38.6205 31.872 38.7402 31.6645C38.86 31.4568 39.1255 31.3856 39.3332 31.5055L40.8904 32.405C41.0979 32.5248 41.169 32.7901 41.0493 32.9977C40.9295 33.2054 40.6639 33.2765 40.4563 33.1566L38.899 32.2571Z" fill="#0B113B"/>
<mask id="mask1_515_48197" style="mask-type:luminance" maskUnits="userSpaceOnUse" x="0" y="21" width="3" height="2">
<path d="M0 21.9402C0 21.5731 0.297666 21.2754 0.664856 21.2754H2.21147C2.57866 21.2754 2.87633 21.5731 2.87633 21.9402C2.87633 22.3074 2.57866 22.6051 2.21147 22.6051H0.664856C0.297666 22.6051 0 22.3074 0 21.9402Z" fill="white"/>
</mask>
<g mask="url(#mask1_515_48197)">
<path d="M0.434364 22.4324C0.194471 22.4324 0 22.238 0 21.9981C0 21.7582 0.194471 21.5637 0.434364 21.5637H2.23289C2.47279 21.5637 2.66726 21.7582 2.66726 21.9981C2.66726 22.238 2.47279 22.4324 2.23289 22.4324H0.434364Z" fill="#0B113B"/>
</g>
<mask id="mask2_515_48197" style="mask-type:luminance" maskUnits="userSpaceOnUse" x="41" y="21" width="3" height="2">
<path d="M41.1055 21.9402C41.1055 21.5731 41.4031 21.2754 41.7703 21.2754H43.3351C43.7023 21.2754 44 21.5731 44 21.9402C44 22.3074 43.7023 22.6051 43.3351 22.6051H41.7703C41.4031 22.6051 41.1055 22.3074 41.1055 21.9402Z" fill="white"/>
</mask>
<g mask="url(#mask2_515_48197)">
<path d="M41.7618 22.4324C41.5223 22.4324 41.3281 22.2382 41.3281 21.9987C41.3281 21.7591 41.5223 21.5649 41.7618 21.5649H43.5617C43.8012 21.5649 43.9954 21.7591 43.9954 21.9987C43.9954 22.2382 43.8012 22.4324 43.5617 22.4324H41.7618Z" fill="#0B113B"/>
</g>
<path d="M3.54009 33.1555C3.33251 33.2753 3.06708 33.2042 2.94731 32.9965C2.82755 32.7889 2.89878 32.5236 3.10638 32.4038L4.6654 31.5047C4.87268 31.3852 5.13762 31.4562 5.25734 31.6634C5.37717 31.8707 5.30614 32.136 5.09872 32.2557L3.54009 33.1555Z" fill="#0B113B"/>
<path d="M39.3332 12.4917C39.1255 12.6116 38.86 12.5404 38.7402 12.3327C38.6205 12.1251 38.6916 11.8598 38.8991 11.7399L40.4565 10.8403C40.6641 10.7204 40.9296 10.7914 41.0496 10.9989C41.1698 11.2066 41.0987 11.4725 40.8908 11.5925L39.3332 12.4917Z" fill="#0B113B"/>
<path d="M11.5938 40.8908C11.474 41.0983 11.2086 41.1695 11.0011 41.0498C10.7934 40.93 10.7222 40.6645 10.8421 40.4568L11.7417 38.8984C11.8615 38.6909 12.1269 38.6198 12.3344 38.7395C12.5421 38.8593 12.6133 39.1248 12.4934 39.3324L11.5938 40.8908Z" fill="#0B113B"/>
<path d="M32.2579 5.09769C32.1381 5.30518 31.8727 5.3763 31.6652 5.25656C31.4575 5.13675 31.3863 4.87123 31.5061 4.66357L32.4054 3.10595C32.5254 2.8981 32.7912 2.82699 32.9989 2.94718C33.2064 3.06723 33.2774 3.3327 33.1575 3.54028L32.2579 5.09769Z" fill="#0B113B"/>
<path d="M19.6016 0.715569L19.9145 0.683105L20.0716 2.17903L19.7587 2.2115L19.6016 0.715569Z" fill="#0B113B"/>
<path d="M23.9219 41.8184L24.2348 41.7847L24.392 43.2806L24.079 43.3144L23.9219 41.8184Z" fill="#0B113B"/>
<path d="M17.3906 1.08177L17.6984 1.01685L18.0113 2.4881L17.7036 2.55303L17.3906 1.08177Z" fill="#0B113B"/>
<path d="M25.9805 41.508L26.2895 41.4431L26.6025 42.9144L26.2934 42.9793L25.9805 41.508Z" fill="#0B113B"/>
<path d="M15.2305 1.67771L15.5304 1.58032L15.994 3.01132L15.6954 3.10871L15.2305 1.67771Z" fill="#0B113B"/>
<path d="M28 40.9861L28.3 40.8887L28.7649 42.3184L28.4649 42.4158L28 40.9861Z" fill="#0B113B"/>
<path d="M13.1406 2.49721L13.4289 2.36865L14.0405 3.74381L13.7535 3.87107L13.1406 2.49721Z" fill="#0B113B"/>
<path d="M29.9531 40.255L30.2401 40.1265L30.853 41.5003L30.5648 41.6289L29.9531 40.255Z" fill="#0B113B"/>
<path d="M9.28125 4.76431L9.53707 4.57861L10.4214 5.79535L10.1656 5.98104L9.28125 4.76431Z" fill="#0B113B"/>
<path d="M33.5742 38.1994L33.83 38.0137L34.7131 39.2304L34.4585 39.4161L33.5742 38.1994Z" fill="#0B113B"/>
<path d="M7.55078 6.18766L7.78452 5.97729L8.79091 7.09534L8.55717 7.30571L7.55078 6.18766Z" fill="#0B113B"/>
<path d="M35.207 36.9033L35.4408 36.6917L36.4472 37.8097L36.2134 38.0214L35.207 36.9033Z" fill="#0B113B"/>
<path d="M5.97656 7.78476L6.18823 7.55103L7.3063 8.5574L7.09463 8.79114L5.97656 7.78476Z" fill="#0B113B"/>
<path d="M36.6914 35.4413L36.9031 35.2075L38.0211 36.2139L37.8095 36.4476L36.6914 35.4413Z" fill="#0B113B"/>
<path d="M4.57812 9.5378L4.76382 9.28198L5.98058 10.1663L5.79488 10.4221L4.57812 9.5378Z" fill="#0B113B"/>
<path d="M38.0156 33.8309L38.2013 33.5764L39.4181 34.4594L39.2324 34.7152L38.0156 33.8309Z" fill="#0B113B"/>
<path d="M2.36719 13.4309L2.49445 13.1426L3.86963 13.7555L3.74107 14.0425L2.36719 13.4309Z" fill="#0B113B"/>
<path d="M40.125 30.2443L40.2536 29.9561L41.6274 30.5677L41.5002 30.8559L40.125 30.2443Z" fill="#0B113B"/>
<path d="M1.58203 15.5295L1.67942 15.2295L3.11044 15.6944L3.01305 15.9943L1.58203 15.5295Z" fill="#0B113B"/>
<path d="M1.01562 17.7004L1.08055 17.3914L2.55313 17.7043L2.4869 18.0134L1.01562 17.7004Z" fill="#0B113B"/>
<path d="M0.683594 19.9157L0.716058 19.6028L2.21201 19.7599L2.17954 20.0729L0.683594 19.9157Z" fill="#0B113B"/>
<path d="M0.716058 24.3946L0.683594 24.0817L2.17954 23.9246L2.21201 24.2375L0.716058 24.3946Z" fill="#0B113B"/>
<path d="M1.08185 26.6073L1.01562 26.2982L2.4869 25.9866L2.55313 26.2943L1.08185 26.6073Z" fill="#0B113B"/>
<path d="M1.67942 28.7653L1.58203 28.4654L3.01305 28.0005L3.11044 28.3005L1.67942 28.7653Z" fill="#0B113B"/>
<path d="M2.49575 30.8559L2.36719 30.5677L3.74237 29.9561L3.86963 30.2443L2.49575 30.8559Z" fill="#0B113B"/>
<path d="M40.2575 14.0464L40.1289 13.7594L41.5041 13.1465L41.6313 13.4348L40.2575 14.0464Z" fill="#0B113B"/>
<path d="M4.76382 34.714L4.57812 34.4595L5.79488 33.5752L5.98058 33.8297L4.76382 34.714Z" fill="#0B113B"/>
<path d="M38.2 10.4221L38.0156 10.1663L39.2324 9.28198L39.4168 9.5378L38.2 10.4221Z" fill="#0B113B"/>
<path d="M6.18693 36.4502L5.97656 36.2151L7.09463 35.2087L7.305 35.4438L6.18693 36.4502Z" fill="#0B113B"/>
<path d="M36.9057 8.79382L36.6953 8.56008L37.8134 7.55371L38.0237 7.78745L36.9057 8.79382Z" fill="#0B113B"/>
<path d="M7.78582 38.0215L7.55078 37.8112L8.55847 36.6931L8.79221 36.9048L7.78582 38.0215Z" fill="#0B113B"/>
<path d="M35.4421 7.30701L35.207 7.09534L36.2134 5.97729L36.4485 6.18896L35.4421 7.30701Z" fill="#0B113B"/>
<path d="M9.53968 39.4173L9.28516 39.2316L10.1695 38.0149L10.424 38.2006L9.53968 39.4173Z" fill="#0B113B"/>
<path d="M33.83 5.97974L33.5742 5.79535L34.4585 4.57861L34.7144 4.76301L33.83 5.97974Z" fill="#0B113B"/>
<path d="M13.4289 41.6313L13.1406 41.5028L13.7535 40.1289L14.0405 40.2575L13.4289 41.6313Z" fill="#0B113B"/>
<path d="M30.2453 3.87229L29.957 3.74503L30.5687 2.36987L30.8569 2.49843L30.2453 3.87229Z" fill="#0B113B"/>
<path d="M15.5265 42.4105L15.2266 42.3131L15.6914 40.8821L15.9914 40.9795L15.5265 42.4105Z" fill="#0B113B"/>
<path d="M28.2987 3.10863L28 3.01124L28.4649 1.58154L28.7636 1.67893L28.2987 3.10863Z" fill="#0B113B"/>
<path d="M17.6984 42.9844L17.3906 42.9195L17.7036 41.4482L18.0113 41.5132L17.6984 42.9844Z" fill="#0B113B"/>
<path d="M26.296 2.55433L25.9883 2.4881L26.3012 1.01685L26.609 1.08307L26.296 2.55433Z" fill="#0B113B"/>
<path d="M19.9158 43.3156L19.6016 43.2818L19.7587 41.7859L20.0729 41.8197L19.9158 43.3156Z" fill="#0B113B"/>
<path d="M24.2348 2.2115L23.9219 2.17903L24.079 0.683105L24.3933 0.715569L24.2348 2.2115Z" fill="#0B113B"/>
<path d="M30.4273 6.80427H30.4208L30.0884 6.98347L30.0391 6.78609L30.4572 6.56274H30.678V8.4755H30.4273V6.80427Z" fill="#0B113B"/>
<path d="M35.8672 14.6125V14.4528L36.0698 14.2554C36.558 13.7906 36.7801 13.5438 36.7827 13.2556C36.7827 13.0608 36.6879 12.8816 36.4022 12.8816C36.2282 12.8816 36.084 12.9686 35.9957 13.0426L35.9126 12.8595C36.0451 12.7478 36.2334 12.666 36.4541 12.666C36.8671 12.666 37.0411 12.9478 37.0411 13.2218C37.0411 13.575 36.784 13.862 36.3814 14.2502L36.2282 14.3905V14.397H37.0878V14.6125H35.8672Z" fill="#0B113B"/>
<path d="M38.1899 22.657C38.2639 22.7037 38.434 22.7777 38.6145 22.7777C38.9483 22.7777 39.0509 22.5661 39.047 22.4063C39.0444 22.1388 38.8028 22.0233 38.5522 22.0233H38.4081V21.8298H38.5522C38.7405 21.8298 38.9794 21.7324 38.9794 21.5052C38.9794 21.3532 38.8834 21.2169 38.6444 21.2169C38.4899 21.2169 38.3444 21.2844 38.2613 21.3441L38.1938 21.1558C38.2938 21.0818 38.4886 21.0078 38.6951 21.0078C39.0716 21.0078 39.2431 21.2325 39.2431 21.4649C39.2431 21.661 39.1249 21.8298 38.8885 21.9142V21.9207C39.1249 21.9674 39.3158 22.144 39.3158 22.4128C39.3158 22.7193 39.0768 22.9868 38.6184 22.9868C38.4029 22.9868 38.2146 22.9193 38.1211 22.8582L38.1899 22.657Z" fill="#0B113B"/>
<path d="M36.6669 31.3923V30.8716H35.7773V30.7002L36.6318 29.4783H36.9123V30.669H37.1798V30.8716H36.9123V31.3936H36.6669V31.3923ZM36.6669 30.669V30.0289C36.6669 29.9289 36.6695 29.8289 36.676 29.7289H36.6669C36.6084 29.8406 36.5604 29.9237 36.5071 30.012L36.0397 30.6625V30.669H36.6669Z" fill="#0B113B"/>
<path d="M30.9591 35.7217H30.2293L30.1553 36.2125C30.1995 36.2073 30.241 36.2021 30.3124 36.2021C30.4592 36.2021 30.6072 36.2333 30.7241 36.3047C30.8734 36.3904 30.9981 36.5553 30.9981 36.7968C30.9981 37.1708 30.6994 37.45 30.2852 37.45C30.0761 37.45 29.8995 37.3916 29.8086 37.3318L29.8735 37.1345C29.9527 37.1825 30.1086 37.241 30.2826 37.241C30.5267 37.241 30.7371 37.0812 30.7371 36.8254C30.7332 36.5774 30.5683 36.4008 30.1865 36.4008C30.0761 36.4008 29.9917 36.4125 29.9216 36.4216L30.0449 35.5022H30.9604V35.7217H30.9591Z" fill="#0B113B"/>
<path d="M22.467 37.9411C22.4138 37.9385 22.3462 37.9411 22.2722 37.9515C21.8658 38.019 21.6515 38.3176 21.6074 38.6319H21.6164C21.7086 38.5111 21.8671 38.4111 22.0787 38.4111C22.4177 38.4111 22.6566 38.6553 22.6566 39.0292C22.6566 39.3799 22.419 39.7032 22.0203 39.7032C21.6113 39.7032 21.3438 39.3851 21.3438 38.8877C21.3438 38.5111 21.4788 38.2125 21.6671 38.0242C21.8268 37.867 22.0385 37.771 22.28 37.7411C22.3566 37.7294 22.4216 37.7268 22.4683 37.7268V37.9411H22.467ZM22.3943 39.0448C22.3943 38.7708 22.2372 38.6059 21.9995 38.6059C21.8437 38.6059 21.6996 38.702 21.6281 38.841C21.61 38.8708 21.5983 38.9085 21.5983 38.9552C21.6048 39.2708 21.7489 39.5032 22.0203 39.5032C22.2437 39.5045 22.3943 39.3188 22.3943 39.0448Z" fill="#0B113B"/>
<path d="M14.2454 35.5699V35.74L13.413 37.4827H13.1442L13.974 35.7894V35.7842H13.0391V35.5686H14.2454V35.5699Z" fill="#0B113B"/>
<path d="M6.82031 30.8483C6.82031 30.6068 6.96575 30.4354 7.20079 30.3354L7.1982 30.3263C6.98523 30.2263 6.89563 30.0627 6.89563 29.8965C6.89563 29.5939 7.15145 29.3875 7.48778 29.3875C7.85787 29.3875 8.04356 29.6199 8.04356 29.8588C8.04356 30.0198 7.96435 30.1938 7.72931 30.3068V30.3146C7.96695 30.4094 8.11369 30.5769 8.11369 30.8094C8.11369 31.1431 7.828 31.3664 7.4631 31.3664C7.06185 31.3651 6.82031 31.1275 6.82031 30.8483ZM7.85137 30.8353C7.85137 30.6029 7.69035 30.4912 7.43064 30.4172C7.20729 30.4821 7.08652 30.6302 7.08652 30.812C7.07743 31.0054 7.22417 31.1768 7.4683 31.1768C7.70074 31.1768 7.85137 31.034 7.85137 30.8353ZM7.13846 29.8796C7.13846 30.0705 7.2826 30.1744 7.50336 30.2328C7.66828 30.177 7.79424 30.0588 7.79424 29.8848C7.79424 29.7329 7.70334 29.5731 7.47089 29.5731C7.25663 29.5731 7.13846 29.7147 7.13846 29.8796Z" fill="#0B113B"/>
<path d="M4.79904 22.774C4.85488 22.7792 4.91981 22.774 5.00681 22.7649C5.15744 22.7441 5.29899 22.6818 5.40807 22.5792C5.53533 22.4649 5.62493 22.2961 5.66129 22.0689H5.6522C5.54572 22.1987 5.39248 22.2754 5.2016 22.2754C4.85748 22.2754 4.63672 22.0157 4.63672 21.6897C4.63672 21.3274 4.89773 21.0093 5.2899 21.0093C5.68077 21.0093 5.9223 21.3274 5.9223 21.8157C5.9223 22.2377 5.78206 22.5325 5.59376 22.7143C5.44573 22.8584 5.24315 22.9467 5.03668 22.9701C4.94188 22.9844 4.86007 22.987 4.79774 22.9844V22.774H4.79904ZM4.89254 21.6728C4.89254 21.9118 5.03668 22.0793 5.26003 22.0793C5.43404 22.0793 5.56909 21.9936 5.63662 21.8793C5.6522 21.8559 5.66129 21.8261 5.66129 21.7858C5.66129 21.4586 5.54052 21.208 5.26912 21.208C5.04966 21.2067 4.89254 21.4014 4.89254 21.6728Z" fill="#0B113B"/>
<path d="M6.60441 12.9244H6.59792L6.26549 13.1036L6.21484 12.9062L6.63298 12.6829H6.85504V14.5956H6.60441V12.9244Z" fill="#0B113B"/>
<path d="M8.82461 13.6179C8.82461 14.2698 8.58308 14.6282 8.15975 14.6282C7.78576 14.6282 7.53384 14.2775 7.52734 13.6439C7.52734 13.0024 7.80394 12.6492 8.19221 12.6492C8.59477 12.6492 8.82461 13.0089 8.82461 13.6179ZM7.78576 13.6478C7.78576 14.1451 7.93769 14.4282 8.17403 14.4282C8.43894 14.4282 8.5662 14.1191 8.5662 13.6296C8.5662 13.1582 8.44543 12.8491 8.17663 12.8491C7.95068 12.8504 7.78576 13.1257 7.78576 13.6478Z" fill="#0B113B"/>
<path d="M12.9091 6.80427H12.9026L12.5702 6.98347L12.5195 6.78609L12.9377 6.56274H13.1597V8.4755H12.9091V6.80427Z" fill="#0B113B"/>
<path d="M14.4169 6.80427H14.4104L14.078 6.98347L14.0273 6.78609L14.4468 6.56274H14.6675V8.4755H14.4169V6.80427Z" fill="#0B113B"/>
<path d="M21.1083 4.57991H21.1018L20.7694 4.75911L20.7188 4.56303L21.1382 4.33838H21.3589V6.25244H21.1083V4.57991Z" fill="#0B113B"/>
<path d="M22.0547 6.25365V6.09393L22.2573 5.89655C22.7468 5.43167 22.9676 5.18495 22.9702 4.89667C22.9702 4.70189 22.8754 4.52269 22.5897 4.52269C22.4157 4.52269 22.2715 4.60969 22.1832 4.68371L22.1014 4.50061C22.2339 4.38894 22.4222 4.30713 22.6429 4.30713C23.0546 4.30713 23.2286 4.58891 23.2286 4.86291C23.2286 5.21741 22.9728 5.50309 22.5689 5.89136L22.4157 6.0316V6.03809H23.2753V6.25365H22.0547Z" fill="#0B113B"/>
<path d="M25.014 19.0762C24.7965 19.1467 24.5937 19.2336 24.3891 19.3204C24.1889 19.4107 23.9912 19.5045 23.7987 19.606C23.4129 19.8055 23.0426 20.024 22.6809 20.2545C22.3219 20.4867 21.9714 20.7309 21.6313 20.9864C21.3965 21.1644 21.1669 21.3485 20.9399 21.5368C20.4989 21.3287 20.0509 21.1326 19.5891 20.964C19.287 20.8539 18.9797 20.7524 18.6655 20.6647C18.3505 20.5787 18.0302 20.5004 17.6953 20.4514C17.9171 20.706 18.1537 20.933 18.3962 21.1515C18.6387 21.3682 18.8891 21.5712 19.1446 21.7656C19.6555 22.1543 20.1855 22.5061 20.7319 22.8295L21.0789 23.035L21.4371 22.7667C21.7781 22.5121 22.1095 22.2455 22.4323 21.9686C22.7552 21.6908 23.0676 21.4009 23.3715 21.0999C23.6727 20.7963 23.9644 20.4815 24.2415 20.1478C24.3814 19.9827 24.5143 19.8089 24.6455 19.6335C24.7724 19.4529 24.901 19.2731 25.014 19.0762ZM23.4474 20.3379C23.3179 20.4789 23.1807 20.6217 23.0357 20.7688C22.7413 21.0603 22.4341 21.3442 22.1233 21.6125C21.7971 21.8912 21.4708 22.1535 21.1523 22.3908L21.0478 22.4691L20.9745 22.4252C20.4428 22.1113 19.9387 21.7742 19.4734 21.4233C19.8593 21.566 20.2624 21.7381 20.7362 21.9617C20.8018 21.9918 20.8709 22.0073 20.9399 22.0073C21.0487 22.0073 21.1566 21.9703 21.2438 21.898C21.4915 21.6925 21.7125 21.517 21.917 21.3622C22.2459 21.1145 22.5894 20.8754 22.9381 20.6492C23.1125 20.5383 23.2817 20.4351 23.4474 20.3379Z" fill="#0B113B"/>
<mask id="mask3_515_48197" style="mask-type:luminance" maskUnits="userSpaceOnUse" x="14" y="10" width="15" height="24">
<path d="M14 10H29V34H14V10Z" fill="white"/>
</mask>
<g mask="url(#mask3_515_48197)">
<path d="M21.0909 28.0018C17.8946 28.0018 15.2939 25.4191 15.2939 22.2437C15.2939 19.0693 17.8946 16.4865 21.0909 16.4865C24.2871 16.4865 26.8878 19.0693 26.8878 22.2437C26.8878 25.4191 24.2871 28.0018 21.0909 28.0018ZM23.4663 10.0137H18.8743C17.8859 10.0137 17.6969 11.1988 17.6969 11.1988L17.3482 16.2655C15.3396 17.5108 14 19.7246 14 22.2437C14 24.7775 15.3534 27.0016 17.3801 28.2427L17.6969 32.8431C17.6969 32.8431 17.8859 34.0283 18.8743 34.0283H23.4663C24.4555 34.0283 24.6436 32.8431 24.6436 32.8431L24.9682 28.1369C26.5797 27.0867 27.7355 25.4036 28.0764 23.4461H29.0354V21.1093H28.0885C27.7657 19.1355 26.6134 17.4351 25.0001 16.3721L24.6436 11.1988C24.6436 11.1988 24.4555 10.0137 23.4663 10.0137ZM21.0909 28.4723C24.5487 28.4723 27.3617 25.678 27.3617 22.2437C27.3617 18.8095 24.5487 16.016 21.0909 16.016C17.633 16.016 14.82 18.8095 14.82 22.2437C14.82 25.678 17.633 28.4723 21.0909 28.4723ZM23.4663 10.4841C23.6104 10.4841 23.8219 10.5185 24.004 10.8221C24.1145 11.0062 24.1611 11.2014 24.1732 11.2582L24.5271 16.4039C24.5375 16.5501 24.6151 16.6834 24.7377 16.7643C26.2759 17.7774 27.3263 19.3892 27.6207 21.185C27.6578 21.4129 27.8563 21.5798 28.0885 21.5798H28.5615V22.9757H28.0764C27.846 22.9757 27.6492 23.1408 27.6094 23.3661C27.2996 25.149 26.2422 26.7444 24.7084 27.743C24.5841 27.8238 24.5055 27.9571 24.4952 28.1042L24.1732 32.7846C24.162 32.8371 24.1188 33.022 24.0144 33.2018C23.8305 33.5209 23.6139 33.5578 23.4663 33.5578H18.8743C18.731 33.5578 18.5186 33.5234 18.3365 33.2198C18.226 33.0358 18.1794 32.8414 18.1673 32.7838L17.8531 28.2108C17.8428 28.0595 17.7591 27.9219 17.6287 27.8419C16.6836 27.2631 15.892 26.4512 15.3414 25.4948C14.7734 24.5083 14.4739 23.3842 14.4739 22.2437C14.4739 21.1102 14.7708 19.9912 15.3327 19.009C15.8782 18.057 16.662 17.2459 17.5994 16.6654C17.728 16.5854 17.8109 16.4486 17.8212 16.2981L18.1673 11.2582C18.1794 11.2014 18.226 11.0062 18.3365 10.8221C18.5186 10.5185 18.731 10.4841 18.8743 10.4841H23.4663Z" fill="#0B113B"/>
</g>
</svg>
