<svg width="28" height="28" viewBox="0 0 28 28" fill="none" xmlns="http://www.w3.org/2000/svg">
<g clip-path="url(#clip0_784_62407)">
<path d="M12.5448 19.6704V22.0388C12.5448 24.0454 10.6781 25.6671 8.37981 25.6671C6.08148 25.6671 4.20312 24.0454 4.20312 22.0388V19.6704C4.20312 21.6771 6.06981 23.1004 8.37981 23.1004C10.6781 23.1004 12.5448 21.6654 12.5448 19.6704Z" stroke="#0B113B" stroke-linecap="round" stroke-linejoin="round"/>
<path d="M12.5408 16.4619C12.5408 17.0452 12.3775 17.5818 12.0975 18.0485C11.4091 19.1802 9.99745 19.8919 8.36412 19.8919C6.73078 19.8919 5.3191 19.1685 4.63077 18.0485C4.35077 17.5818 4.1875 17.0452 4.1875 16.4619C4.1875 15.4585 4.65414 14.5602 5.40081 13.9069C6.15914 13.2419 7.19744 12.8452 8.35244 12.8452C9.50744 12.8452 10.5458 13.2535 11.3041 13.9069C12.0741 14.5485 12.5408 15.4585 12.5408 16.4619Z" stroke="#0B113B" stroke-linecap="round" stroke-linejoin="round"/>
<path d="M12.5448 16.4618V19.6701C12.5448 21.6768 10.6781 23.1001 8.37981 23.1001C6.08148 23.1001 4.20312 21.6651 4.20312 19.6701V16.4618C4.20312 14.4551 6.06981 12.8335 8.37981 12.8335C9.53481 12.8335 10.5732 13.2418 11.3315 13.8951C12.0782 14.5485 12.5448 15.4585 12.5448 16.4618Z" stroke="#0B113B" stroke-linecap="round" stroke-linejoin="round"/>
<path d="M25.6676 12.7983V15.2018C25.6676 15.8434 25.1542 16.3684 24.5009 16.3917H22.2142C20.9542 16.3917 19.7992 15.47 19.6942 14.21C19.6242 13.475 19.9042 12.7867 20.3942 12.3084C20.8259 11.865 21.4209 11.6084 22.0742 11.6084H24.5009C25.1542 11.6317 25.6676 12.1567 25.6676 12.7983Z" stroke="#0B113B" stroke-linecap="round" stroke-linejoin="round"/>
<path d="M2.33203 12.2502V9.91683C2.33203 6.7435 4.24537 4.52683 7.22037 4.15349C7.5237 4.10683 7.8387 4.0835 8.16536 4.0835H18.6654C18.9687 4.0835 19.2604 4.09515 19.5404 4.14182C22.5504 4.49182 24.4987 6.72016 24.4987 9.91683V11.6085H22.072C21.4187 11.6085 20.8237 11.8651 20.392 12.3085C19.902 12.7868 19.622 13.4752 19.692 14.2102C19.797 15.4702 20.952 16.3918 22.212 16.3918H24.4987V18.0835C24.4987 21.5835 22.1654 23.9168 18.6654 23.9168H15.7487" stroke="#0B113B" stroke-linecap="round" stroke-linejoin="round"/>
</g>
<defs>
<clipPath id="clip0_784_62407">
<rect width="28" height="28" fill="white"/>
</clipPath>
</defs>
</svg>
