<svg width="44" height="44" viewBox="0 0 44 44" fill="none" xmlns="http://www.w3.org/2000/svg">
<path d="M17.418 25.2083C17.418 26.9866 18.793 28.4166 20.4797 28.4166H23.9263C25.3929 28.4166 26.5846 27.1699 26.5846 25.6116C26.5846 23.9433 25.8513 23.3383 24.7697 22.9533L19.2513 21.0283C18.1696 20.6433 17.4363 20.0566 17.4363 18.3699C17.4363 16.8299 18.628 15.5649 20.0946 15.5649H23.5413C25.228 15.5649 26.603 16.9949 26.603 18.7733" stroke="#0B113B" stroke-linecap="round" stroke-linejoin="round"/>
<path d="M22 13.75V30.25" stroke="#0B113B" stroke-linecap="round" stroke-linejoin="round"/>
<path d="M40.3346 22.0001C40.3346 32.1201 32.1213 40.3334 22.0013 40.3334C11.8813 40.3334 3.66797 32.1201 3.66797 22.0001C3.66797 11.8801 11.8813 3.66675 22.0013 3.66675" stroke="#0B113B" stroke-linecap="round" stroke-linejoin="round"/>
<path d="M40.3333 11.0001V3.66675H33" stroke="#0B113B" stroke-linecap="round" stroke-linejoin="round"/>
<path d="M31.168 12.8334L40.3346 3.66675" stroke="#0B113B" stroke-linecap="round" stroke-linejoin="round"/>
</svg>
