<svg width="28" height="28" viewBox="0 0 28 28" fill="none" xmlns="http://www.w3.org/2000/svg">
<path d="M26.8347 20.8949C26.858 21.7699 26.6247 22.5982 26.2047 23.3099C25.9713 23.7299 25.6563 24.1149 25.3063 24.4299C24.5013 25.1766 23.4397 25.6316 22.2613 25.6666C20.558 25.7016 19.053 24.8266 18.2247 23.4849C17.7813 22.7966 17.513 21.9683 17.5013 21.0933C17.4663 19.6233 18.1197 18.2932 19.1697 17.4182C19.963 16.7649 20.9663 16.3566 22.063 16.3333C24.6413 16.2749 26.7763 18.3166 26.8347 20.8949Z" stroke="#0B113B" stroke-miterlimit="10" stroke-linecap="round" stroke-linejoin="round"/>
<path d="M20.3477 21.0351L21.526 22.155L23.9643 19.7983" stroke="#0B113B" stroke-linecap="round" stroke-linejoin="round"/>
<path d="M3.69922 8.68018L14.0009 14.6418L24.2325 8.71514" stroke="#0B113B" stroke-linecap="round" stroke-linejoin="round"/>
<path d="M14 25.212V14.6304" stroke="#0B113B" stroke-linecap="round" stroke-linejoin="round"/>
<path d="M25.2124 10.6985V17.3019C25.2124 17.3602 25.2124 17.4068 25.2007 17.4652C24.3841 16.7535 23.334 16.3335 22.1674 16.3335C21.0707 16.3335 20.0557 16.7185 19.2507 17.3602C18.1774 18.2119 17.5007 19.5302 17.5007 21.0002C17.5007 21.8752 17.7457 22.7035 18.1774 23.4035C18.2824 23.5902 18.4107 23.7652 18.5507 23.9285L16.4157 25.1069C15.0857 25.8535 12.9157 25.8535 11.5857 25.1069L5.35571 21.6535C3.94404 20.8718 2.78906 18.9119 2.78906 17.3019V10.6985C2.78906 9.0885 3.94404 7.12852 5.35571 6.34685L11.5857 2.8935C12.9157 2.14683 15.0857 2.14683 16.4157 2.8935L22.6457 6.34685C24.0574 7.12852 25.2124 9.0885 25.2124 10.6985Z" stroke="#0B113B" stroke-linecap="round" stroke-linejoin="round"/>
</svg>
