<svg width="28" height="28" viewBox="0 0 28 28" fill="none" xmlns="http://www.w3.org/2000/svg">
<g clip-path="url(#clip0_784_62411)">
<path d="M9.91537 22.1668H9.33203C4.66536 22.1668 2.33203 21.0002 2.33203 15.1668V9.3335C2.33203 4.66683 4.66536 2.3335 9.33203 2.3335H18.6654C23.332 2.3335 25.6654 4.66683 25.6654 9.3335V15.1668C25.6654 19.8335 23.332 22.1668 18.6654 22.1668H18.082C17.7204 22.1668 17.3704 22.3418 17.1487 22.6335L15.3987 24.9668C14.6287 25.9935 13.3687 25.9935 12.5987 24.9668L10.8487 22.6335C10.662 22.3768 10.2304 22.1668 9.91537 22.1668Z" stroke="#0B113B" stroke-miterlimit="10" stroke-linecap="round" stroke-linejoin="round"/>
<path d="M8 13C8 13.7879 8.15519 14.5681 8.45672 15.2961C8.75825 16.0241 9.20021 16.6855 9.75736 17.2426C10.3145 17.7998 10.9759 18.2417 11.7039 18.5433C12.4319 18.8448 13.2121 19 14 19C14.7879 19 15.5681 18.8448 16.2961 18.5433C17.0241 18.2417 17.6855 17.7998 18.2426 17.2426C18.7998 16.6855 19.2417 16.0241 19.5433 15.2961C19.8448 14.5681 20 13.7879 20 13C20 12.2121 19.8448 11.4319 19.5433 10.7039C19.2417 9.97595 18.7998 9.31451 18.2426 8.75736C17.6855 8.20021 17.0241 7.75825 16.2961 7.45672C15.5681 7.15519 14.7879 7 14 7C13.2121 7 12.4319 7.15519 11.7039 7.45672C10.9759 7.75825 10.3145 8.20021 9.75736 8.75736C9.20021 9.31451 8.75825 9.97595 8.45672 10.7039C8.15519 11.4319 8 12.2121 8 13Z" stroke="#0B113B" stroke-linecap="round" stroke-linejoin="round"/>
<path d="M15.2447 11.5C15.0807 11.18 14.7727 10.9873 14.4447 11H13.5553C13.0647 11 12.6667 11.4467 12.6667 12C12.6667 12.5513 13.0647 12.9993 13.5553 12.9993H14.4447C14.9353 12.9993 15.3333 13.4467 15.3333 13.9993C15.3333 14.5513 14.9353 14.9987 14.4447 14.9987H13.5553C13.2273 15.0113 12.9193 14.8187 12.7553 14.4987M14 9.66667V11M14 15V16.3333M10 9L11 10M17 16L18 17" stroke="#0B113B" stroke-linecap="round" stroke-linejoin="round"/>
</g>
<defs>
<clipPath id="clip0_784_62411">
<rect width="28" height="28" fill="white"/>
</clipPath>
</defs>
</svg>
