<svg width="44" height="44" viewBox="0 0 44 44" fill="none" xmlns="http://www.w3.org/2000/svg">
<path d="M32.7375 30.8889V28.6667H36.2054V30.8889H32.7375ZM32.7375 23.1111V20.8889H38.3527V23.1111H32.7375ZM32.7375 15.3333V13.0556H40.5V15.3333H32.7375ZM12.0076 42L9.60261 33.2578C7.80318 32.163 6.33586 30.617 5.20066 28.62C4.06546 26.623 3.49857 24.4163 3.5 22C3.50143 19.5837 4.06832 17.377 5.20066 15.38C6.33586 13.383 7.80318 11.837 9.60261 10.7422L12.0076 2H20.7621L23.1649 10.7444C24.9658 11.8378 26.4331 13.383 27.5669 15.38C28.7006 17.377 29.2675 19.5837 29.2675 22C29.2675 24.4163 28.7006 26.623 27.5669 28.62C26.4331 30.617 24.9658 32.163 23.1649 33.2578L20.7599 42H12.0076ZM16.3838 33.1111C19.3542 33.1111 21.8866 32.0274 23.9809 29.86C26.0752 27.6926 27.1216 25.0726 27.1202 22C27.1188 18.9274 26.0716 16.3074 23.9787 14.14C21.8858 11.9726 19.3542 10.8889 16.3838 10.8889C13.4133 10.8889 10.8817 11.9726 8.78878 14.14C6.69589 16.3074 5.64873 18.9274 5.64729 22C5.64586 25.0726 6.69303 27.6933 8.78878 29.8622C10.8845 32.0311 13.4162 33.1141 16.3838 33.1111ZM12.2202 9.39333C12.9646 9.15037 13.6746 8.96667 14.3503 8.84222C15.026 8.7163 15.7038 8.65333 16.3838 8.65333C17.0637 8.65333 17.7416 8.7163 18.4172 8.84222C19.0929 8.96815 19.8022 9.15185 20.5452 9.39333L19.1108 4.22222H13.6588L12.2202 9.39333ZM13.6588 39.7778H19.1087L20.5474 34.6067C19.803 34.8496 19.0929 35.0244 18.4172 35.1311C17.7416 35.2378 17.0637 35.2904 16.3838 35.2889C15.7038 35.2874 15.026 35.2341 14.3503 35.1289C13.6746 35.0237 12.9653 34.8489 12.2223 34.6044L13.6588 39.7778Z" fill="#0B113B"/>
<path d="M14.2812 23.5533C14.2812 24.4133 14.9413 25.1066 15.7613 25.1066H17.4346C18.1479 25.1066 18.7279 24.5 18.7279 23.7533C18.7279 22.94 18.3746 22.6533 17.8479 22.4666L15.1612 21.5333C14.6346 21.3466 14.2812 21.06 14.2812 20.2466C14.2812 19.5 14.8612 18.8933 15.5746 18.8933H17.2479C18.0679 18.8933 18.7279 19.5866 18.7279 20.4466" stroke="#0B113B" stroke-linecap="round" stroke-linejoin="round"/>
<path d="M16.5 18V26" stroke="#0B113B" stroke-linecap="round" stroke-linejoin="round"/>
<path d="M16.4987 28.6666C20.1806 28.6666 23.1654 25.6818 23.1654 21.9999C23.1654 18.318 20.1806 15.3333 16.4987 15.3333C12.8168 15.3333 9.83203 18.318 9.83203 21.9999C9.83203 25.6818 12.8168 28.6666 16.4987 28.6666Z" stroke="#0B113B" stroke-linecap="round" stroke-linejoin="round"/>
</svg>
