<svg width="44" height="44" viewBox="0 0 44 44" fill="none" xmlns="http://www.w3.org/2000/svg">
<path d="M33.072 24.8416C32.302 25.5932 31.862 26.6749 31.972 27.8299C32.137 29.8099 33.952 31.2582 35.932 31.2582H39.4154V33.4399C39.4154 37.2349 36.317 40.3333 32.522 40.3333H13.987C14.5554 39.8566 15.0504 39.2699 15.4354 38.6099C16.1137 37.5099 16.4987 36.2083 16.4987 34.8333C16.4987 30.7816 13.217 27.4999 9.16536 27.4999C7.44203 27.4999 5.84703 28.1049 4.58203 29.1133V21.1016C4.58203 17.3066 7.68035 14.2083 11.4754 14.2083H32.522C36.317 14.2083 39.4154 17.3066 39.4154 21.1016V23.7416H35.712C34.6854 23.7416 33.7504 24.1449 33.072 24.8416Z" stroke="#0B113B" stroke-linecap="round" stroke-linejoin="round"/>
<path d="M4.58203 22.7516V14.3734C4.58203 12.1917 5.92036 10.2483 7.95536 9.47832L22.512 3.97832C24.7854 3.11666 27.2237 4.80338 27.2237 7.24171V14.2084" stroke="#0B113B" stroke-linecap="round" stroke-linejoin="round"/>
<path d="M41.3565 25.6119V29.3886C41.3565 30.397 40.5498 31.2219 39.5232 31.2586H35.9299C33.9499 31.2586 32.1349 29.8102 31.9699 27.8302C31.8599 26.6752 32.2998 25.5936 33.0698 24.8419C33.7482 24.1452 34.6832 23.7419 35.7098 23.7419H39.5232C40.5498 23.7786 41.3565 24.6035 41.3565 25.6119Z" stroke="#0B113B" stroke-linecap="round" stroke-linejoin="round"/>
<path d="M12.832 22H25.6654" stroke="#0B113B" stroke-linecap="round" stroke-linejoin="round"/>
<path d="M16.4987 34.8333C16.4987 36.2083 16.1137 37.51 15.4354 38.61C15.0504 39.27 14.5554 39.8567 13.987 40.3333C12.7037 41.4883 11.017 42.1667 9.16536 42.1667C6.4887 42.1667 4.16037 40.7367 2.89537 38.61C2.21703 37.51 1.83203 36.2083 1.83203 34.8333C1.83203 32.5233 2.89536 30.4517 4.58203 29.1133C5.84703 28.105 7.44203 27.5 9.16536 27.5C13.217 27.5 16.4987 30.7817 16.4987 34.8333Z" stroke="#0B113B" stroke-miterlimit="10" stroke-linecap="round" stroke-linejoin="round"/>
<path d="M6.30859 34.8325L8.12358 36.6475L12.0286 33.0359" stroke="#0B113B" stroke-linecap="round" stroke-linejoin="round"/>
</svg>
