<svg width="22" height="21" viewBox="0 0 22 21" fill="none" xmlns="http://www.w3.org/2000/svg">
<path d="M10.5367 0.248141C10.7296 -0.0829921 11.2079 -0.0829918 11.4008 0.248142L14.7372 5.97644C14.8079 6.09774 14.9263 6.18376 15.0635 6.21347L21.5424 7.61646C21.917 7.69756 22.0648 8.15253 21.8095 8.43828L17.3925 13.3816C17.299 13.4862 17.2538 13.6254 17.2679 13.7651L17.9357 20.3605C17.9743 20.7417 17.5873 21.0229 17.2366 20.8684L11.1704 18.1952C11.0419 18.1386 10.8956 18.1386 10.7671 18.1952L4.70088 20.8684C4.35021 21.0229 3.9632 20.7417 4.0018 20.3605L4.66958 13.7651C4.68372 13.6254 4.6385 13.4862 4.54497 13.3816L0.128047 8.43828C-0.12728 8.15253 0.0205468 7.69756 0.395073 7.61646L6.87402 6.21347C7.01122 6.18376 7.12961 6.09774 7.20026 5.97644L10.5367 0.248141Z" fill="#E5B533"/>
</svg>
