<svg width="44" height="44" viewBox="0 0 44 44" fill="none" xmlns="http://www.w3.org/2000/svg">
<path d="M30.75 29.5C30.4185 29.5 30.1005 29.6317 29.8661 29.8661C29.6317 30.1005 29.5 30.4185 29.5 30.75C29.5 31.0815 29.6317 31.3995 29.8661 31.6339C30.1005 31.8683 30.4185 32 30.75 32H35.75C36.0815 32 36.3995 31.8683 36.6339 31.6339C36.8683 31.3995 37 31.0815 37 30.75C37 30.4185 36.8683 30.1005 36.6339 29.8661C36.3995 29.6317 36.0815 29.5 35.75 29.5H30.75ZM2 13.875C2 12.0516 2.72433 10.303 4.01364 9.01364C5.30295 7.72433 7.05164 7 8.875 7H35.125C36.9484 7 38.697 7.72433 39.9864 9.01364C41.2757 10.303 42 12.0516 42 13.875V30.125C42 31.9484 41.2757 33.697 39.9864 34.9864C38.697 36.2757 36.9484 37 35.125 37H8.875C7.05164 37 5.30295 36.2757 4.01364 34.9864C2.72433 33.697 2 31.9484 2 30.125V13.875ZM8.875 9.5C7.71468 9.5 6.60188 9.96094 5.78141 10.7814C4.96094 11.6019 4.5 12.7147 4.5 13.875V17H39.5V13.875C39.5 12.7147 39.0391 11.6019 38.2186 10.7814C37.3981 9.96094 36.2853 9.5 35.125 9.5H8.875ZM39.5 19.5H4.5V30.125C4.5 32.54 6.46 34.5 8.875 34.5H35.125C36.2853 34.5 37.3981 34.0391 38.2186 33.2186C39.0391 32.3981 39.5 31.2853 39.5 30.125V19.5Z" fill="#0B113B"/>
</svg>
