<svg width="44" height="44" viewBox="0 0 44 44" fill="none" xmlns="http://www.w3.org/2000/svg">
<path d="M8.31579 6H35.6842C37.3593 6 38.9657 6.67428 40.1502 7.87452C41.3346 9.07475 42 10.7026 42 12.4V31.6C42 33.2974 41.3346 34.9253 40.1502 36.1255C38.9657 37.3257 37.3593 38 35.6842 38H8.31579C6.64074 38 5.03429 37.3257 3.84985 36.1255C2.66541 34.9253 2 33.2974 2 31.6V12.4C2 10.7026 2.66541 9.07475 3.84985 7.87452C5.03429 6.67428 6.64074 6 8.31579 6ZM8.31579 8.13333C7.26316 8.13333 6.33684 8.496 5.62105 9.136L22 19.8667L38.3789 9.136C37.6632 8.496 36.7368 8.13333 35.6842 8.13333H8.31579ZM22 22.448L4.37895 10.864C4.21053 11.3333 4.10526 11.8667 4.10526 12.4V31.6C4.10526 32.7316 4.54887 33.8168 5.3385 34.617C6.12812 35.4171 7.19909 35.8667 8.31579 35.8667H35.6842C36.8009 35.8667 37.8719 35.4171 38.6615 34.617C39.4511 33.8168 39.8947 32.7316 39.8947 31.6V12.4C39.8947 11.8667 39.7895 11.3333 39.6211 10.864L22 22.448Z" fill="#0B113B"/>
</svg>
