<svg width="44" height="44" viewBox="0 0 44 44" fill="none" xmlns="http://www.w3.org/2000/svg">
<path d="M18.2637 38.5L16.2103 31.2877C14.6728 30.3844 13.42 29.1091 12.452 27.4615C11.484 25.8139 11 23.9934 11 22C11 20.0066 11.484 18.1861 12.452 16.5385C13.42 14.8909 14.6728 13.6156 16.2103 12.7123L18.2637 5.5H25.7382L27.7897 12.7142C29.3272 13.6162 30.58 14.8909 31.548 16.5385C32.516 18.1861 33 20.0066 33 22C33 23.9934 32.516 25.8139 31.548 27.4615C30.58 29.1091 29.3272 30.3844 27.7897 31.2877L25.7363 38.5H18.2637ZM22 31.1667C24.5361 31.1667 26.6982 30.2726 28.4863 28.4845C30.2744 26.6964 31.1679 24.5349 31.1667 22C31.1654 19.4651 30.2714 17.3036 28.4845 15.5155C26.6976 13.7274 24.5361 12.8333 22 12.8333C19.4639 12.8333 17.3024 13.7274 15.5155 15.5155C13.7286 17.3036 12.8346 19.4651 12.8333 22C12.8321 24.5349 13.7262 26.697 15.5155 28.4863C17.3048 30.2757 19.4663 31.1691 22 31.1667ZM18.4452 11.5995C19.0807 11.3991 19.6869 11.2475 20.2638 11.1448C20.8407 11.0409 21.4194 10.989 22 10.989C22.5806 10.989 23.1593 11.0409 23.7362 11.1448C24.3131 11.2487 24.9187 11.4003 25.553 11.5995L24.3283 7.33333H19.6753L18.4452 11.5995ZM19.6735 36.6667H24.3265L25.5548 32.4005C24.9193 32.6009 24.3131 32.7452 23.7362 32.8332C23.1593 32.9212 22.5806 32.9646 22 32.9633C21.4194 32.9621 20.8407 32.9181 20.2638 32.8313C19.6869 32.7446 19.0813 32.6003 18.447 32.3987L19.6735 36.6667Z" fill="#0B113B"/>
</svg>
