<svg width="44" height="44" viewBox="0 0 44 44" fill="none" xmlns="http://www.w3.org/2000/svg">
<path d="M40.332 10.9998V15.4365C40.332 18.3332 38.4987 20.1665 35.602 20.1665H29.332V7.3515C29.332 5.3165 31.0004 3.6665 33.0354 3.6665C35.0337 3.68484 36.867 4.4915 38.187 5.8115C39.507 7.14983 40.332 8.98317 40.332 10.9998Z" stroke="#0B113B" stroke-miterlimit="10" stroke-linecap="round" stroke-linejoin="round"/>
<path d="M3.66797 12.8332V38.4998C3.66797 40.0215 5.3913 40.8832 6.6013 39.9665L9.7363 37.6198C10.4696 37.0698 11.4963 37.1432 12.1563 37.8032L15.1996 40.8648C15.9146 41.5798 17.088 41.5798 17.803 40.8648L20.883 37.7848C21.5246 37.1432 22.5513 37.0698 23.2663 37.6198L26.4013 39.9665C27.6113 40.8648 29.3346 40.0032 29.3346 38.4998V7.33317C29.3346 5.3165 30.9846 3.6665 33.0013 3.6665H12.8346H11.0013C5.5013 3.6665 3.66797 6.94817 3.66797 10.9998V12.8332Z" stroke="#0B113B" stroke-miterlimit="10" stroke-linecap="round" stroke-linejoin="round"/>
<path d="M16.5 23.8516H22" stroke="#0B113B" stroke-linecap="round" stroke-linejoin="round"/>
<path d="M16.5 16.5186H22" stroke="#0B113B" stroke-linecap="round" stroke-linejoin="round"/>
<path d="M10.9922 23.8335H11.0087" stroke="#0B113B" stroke-width="2" stroke-linecap="round" stroke-linejoin="round"/>
<path d="M10.9922 16.5H11.0087" stroke="#0B113B" stroke-width="2" stroke-linecap="round" stroke-linejoin="round"/>
</svg>
