<svg width="44" height="44" viewBox="0 0 44 44" fill="none" xmlns="http://www.w3.org/2000/svg">
<path d="M25.171 6.43484L28.3977 12.8882C28.8377 13.7865 30.011 14.6482 31.001 14.8132L36.8493 15.7848C40.5893 16.4082 41.4693 19.1215 38.7743 21.7982L34.2277 26.3448C33.4577 27.1148 33.036 28.5998 33.2743 29.6632L34.576 35.2915C35.6027 39.7465 33.2377 41.4698 29.296 39.1415L23.8143 35.8965C22.8243 35.3098 21.1927 35.3098 20.1843 35.8965L14.7027 39.1415C10.7793 41.4698 8.39601 39.7282 9.42268 35.2915L10.7243 29.6632C10.9627 28.5998 10.541 27.1148 9.77101 26.3448L5.22434 21.7982C2.54768 19.1215 3.40935 16.4082 7.14935 15.7848L12.9977 14.8132C13.9693 14.6482 15.1427 13.7865 15.5827 12.8882L18.8093 6.43484C20.5693 2.93318 23.4293 2.93318 25.171 6.43484Z" stroke="#0B113B" stroke-linecap="round" stroke-linejoin="round"/>
</svg>
